<?xml version="1.0" encoding="utf-8"?>
<!-- Generator: Adobe Illustrator 19.2.1, SVG Export Plug-In . SVG Version: 6.00 Build 0)  -->
<svg version="1.1" id="Layer_1" xmlns="http://www.w3.org/2000/svg" xmlns:xlink="http://www.w3.org/1999/xlink" x="0px" y="0px"
	 viewBox="0 0 184.7 62" style="enable-background:new 0 0 184.7 62;" xml:space="preserve">
<style type="text/css">
	.st0{fill:#FFFFFF;}
</style>
<g>
	<path class="st0" d="M6.9,7.7h6.7c4.3,0,7.3,0.3,8.8,0.8c1.5,0.5,2.7,1.4,3.5,2.6c0.8,1.2,1.3,2.6,1.5,4c0.2,1.5,0.3,4.4,0.3,8.8
		V40c0,4.1-0.1,6.9-0.4,8.3c-0.3,1.4-0.8,2.5-1.5,3.3c-0.7,0.8-1.6,1.3-2.7,1.6c-1.1,0.3-2.7,0.5-4.8,0.5H6.9V7.7z M15.9,15.5v30.3
		c1.3,0,2.1-0.3,2.4-1c0.3-0.7,0.4-2.6,0.4-5.6V21.2c0-2.1,0-3.4-0.1-4c-0.1-0.6-0.3-1-0.7-1.3C17.5,15.7,16.8,15.5,15.9,15.5z"/>
	<path class="st0" d="M44.3,7.7v46h-9v-46H44.3z"/>
	<path class="st0" d="M71.3,21.6H63v-3.4c0-1.6-0.1-2.6-0.3-3c-0.2-0.4-0.6-0.7-1.1-0.7c-0.5,0-0.9,0.3-1.2,0.9
		C60.1,15.9,60,16.8,60,18c0,1.5,0.2,2.7,0.5,3.5c0.3,0.8,1.1,1.7,2.5,2.8c4,3.2,6.5,5.8,7.5,7.8c1,2,1.6,5.3,1.6,9.8
		c0,3.3-0.3,5.7-0.9,7.2c-0.6,1.6-1.7,2.9-3.3,3.9c-1.6,1.1-3.6,1.6-5.8,1.6c-2.4,0-4.4-0.6-6.1-1.8c-1.7-1.2-2.8-2.8-3.3-4.6
		c-0.5-1.9-0.8-4.5-0.8-8v-3h8.3v5.6c0,1.7,0.1,2.8,0.4,3.3c0.2,0.5,0.6,0.7,1.2,0.7s1-0.3,1.3-0.9c0.3-0.6,0.4-1.6,0.4-2.8
		c0-2.7-0.3-4.5-0.8-5.3c-0.6-0.8-2-2.2-4.2-4.2c-2.2-2-3.7-3.4-4.4-4.3c-0.7-0.9-1.3-2.1-1.8-3.7c-0.5-1.6-0.7-3.6-0.7-6
		c0-3.5,0.3-6.1,1-7.7c0.7-1.6,1.8-2.9,3.3-3.8c1.5-0.9,3.3-1.4,5.5-1.4c2.3,0,4.3,0.5,6,1.5c1.6,1,2.7,2.3,3.3,3.8
		c0.5,1.5,0.8,4.1,0.8,7.8V21.6z"/>
</g>
<g>
	<path class="st0" d="M80.6,16.7c0,0,1.4-0.9,3.4-1.5c2-0.6,4.1-0.7,5.7-0.6c1.6,0.1,3.1,0.7,3.7,1.3c0.6,0.6,0.9,0.9,1.1,2.2
		s0.2,2.9,0.1,4.2c-0.1,1.3-0.3,2.1-1.3,3.3c-1,1.2-7.7,6.7-7.7,6.7s-1.3,0.9-2.8,2.6c-0.8,1-1.7,2.2-2.2,3.8
		c-0.7,2.1-0.8,3.5-0.8,3.5v11.6h21.7V47h-14v-4.4c0,0,0-1.2,0.4-2c0.4-0.8,0.9-1.6,1.9-2.4c0.9-0.8,6.8-5.6,6.8-5.6
		s1.6-1.4,2.5-2.5c1.1-1.4,2-2.7,2.4-4.4c0.4-1.7,0.5-2.3,0.6-4.6c0.1-2.3-0.2-6.3-1-8.1c-0.8-1.8-2-2.7-3.1-3.4
		c-1.1-0.7-4.2-1.9-7.2-2.1c-1.5-0.1-3.8,0.1-5.8,0.4c-2.4,0.4-4.3,1.1-4.3,1.1L80.6,16.7z"/>
	<polygon class="st0" points="135.4,14.4 135.4,7.5 147.6,7.5 147.6,53.6 140.4,53.6 140.3,14.4 	"/>
	<path class="st0" d="M179.6,23.8c0-1.3,0-6,0-7.3c0-5.3-5.3-9.5-11.8-9.5c-6.5,0-11.8,4.3-11.8,9.5c0,1.3,0,6,0,7.3
		c0,2.9,1.6,5.4,4,7.2c-2.5,1.7-4,4.3-4,7.2c0,1.3,0,6,0,7.3c0,5.3,5.3,9.5,11.8,9.5c6.5,0,11.8-4.3,11.8-9.5c0-1.3,0-6,0-7.3
		c0-2.9-1.6-5.4-4-7.2C178,29.2,179.6,26.6,179.6,23.8z M163.2,18.8c0-3.4,2-4.8,4.5-4.8c2.5,0,4.5,1.5,4.5,4.8v4.6
		c0,2.6-2,4.8-4.5,4.8c-2.5,0-4.5-2.1-4.5-4.8V18.8z M172.2,43c0,3.4-2,4.8-4.5,4.8c-2.5,0-4.5-1.5-4.5-4.8v-4.6
		c0-2.6,2-4.8,4.5-4.8c2.5,0,4.5,2.1,4.5,4.8V43z"/>
	<path class="st0" d="M118.9,7.3c-6.3,0-11.4,3.7-11.4,11.9v23.4c0,8.8,5.1,11.9,11.4,11.9s11.8-3,11.8-12.4V18.8
		C130.7,11,125.2,7.3,118.9,7.3z M119,14.5c2.4,0,4.3,2.1,4.3,4.6v0.5l-8.7,14.7V19.1C114.7,16.5,116.6,14.5,119,14.5z M119,47.6
		c-2,0-3.7-1.4-4.2-3.4l8.5-14.5V43C123.3,45.6,121.4,47.6,119,47.6z"/>
</g>
</svg>
