<?xml version="1.0" encoding="utf-8"?>
<!-- Generator: Adobe Illustrator 19.2.1, SVG Export Plug-In . SVG Version: 6.00 Build 0)  -->
<svg version="1.1" id="Layer_1" xmlns="http://www.w3.org/2000/svg" xmlns:xlink="http://www.w3.org/1999/xlink" x="0px" y="0px"
	 viewBox="0 0 142 50" style="enable-background:new 0 0 142 50;" xml:space="preserve">
<style type="text/css">
	.st0{fill:#FFFFFF;}
</style>
<g>
	<g>
		<path class="st0" d="M0.8,2.5h6.5c4.2,0,7,0.3,8.5,0.8s2.6,1.4,3.4,2.5C20,7,20.4,8.3,20.6,9.7c0.2,1.4,0.3,4.3,0.3,8.5v15.6
			c0,4-0.1,6.7-0.4,8S19.7,44.2,19,45s-1.6,1.3-2.6,1.6s-2.6,0.5-4.6,0.5h-11V2.5z M9.4,10.1v29.2c1.2,0,2-0.3,2.3-1
			s0.4-2.5,0.4-5.4V15.6c0-2,0-3.3-0.1-3.9c-0.1-0.6-0.3-1-0.7-1.2C11,10.2,10.4,10.1,9.4,10.1z"/>
		<path class="st0" d="M36.9,2.5v44.4h-8.7V2.5H36.9z"/>
		<path class="st0" d="M63,15.9h-8v-3.3c0-1.5-0.1-2.5-0.3-2.9c-0.2-0.4-0.5-0.6-1-0.6s-0.9,0.3-1.2,0.9c-0.3,0.6-0.4,1.4-0.4,2.6
			c0,1.5,0.2,2.6,0.5,3.3c0.3,0.8,1.1,1.7,2.4,2.7c3.9,3.1,6.3,5.6,7.3,7.5c1,2,1.5,5.1,1.5,9.5c0,3.2-0.3,5.5-0.8,7
			c-0.6,1.5-1.6,2.8-3.2,3.8c-1.6,1-3.4,1.5-5.6,1.5c-2.3,0-4.3-0.6-5.9-1.8s-2.7-2.7-3.2-4.5s-0.8-4.4-0.8-7.7V31h8v5.4
			c0,1.7,0.1,2.7,0.3,3.2s0.6,0.7,1.2,0.7c0.6,0,1-0.3,1.3-0.9c0.3-0.6,0.4-1.5,0.4-2.7c0-2.6-0.3-4.3-0.8-5.1
			c-0.5-0.8-1.9-2.1-4.1-4c-2.2-1.9-3.6-3.3-4.3-4.1c-0.7-0.9-1.3-2-1.7-3.6c-0.5-1.5-0.7-3.5-0.7-5.8c0-3.4,0.3-5.9,1-7.5
			C45.5,5,46.6,3.7,48,2.9c1.5-0.9,3.2-1.3,5.3-1.3c2.2,0,4.2,0.5,5.7,1.5c1.6,1,2.6,2.2,3.1,3.7s0.8,4,0.8,7.5v1.6H63z"/>
	</g>
	<path class="st0" d="M71.7,21.4c0,0,1-0.6,2.4-1s2.8-0.5,4-0.4s2.2,0.5,2.6,0.9s0.7,0.6,0.8,1.5c0.1,0.9,0.1,2,0.1,2.9
		c-0.1,0.9-0.2,1.5-0.9,2.3c-0.7,0.8-5.4,4.7-5.4,4.7s-0.9,0.6-1.9,1.8c-0.6,0.7-1.2,1.6-1.5,2.7c-0.5,1.4-0.5,2.4-0.5,2.4v8.1h15.1
		v-4.7h-9.7v-3.1c0,0,0-0.8,0.3-1.4s0.7-1.1,1.3-1.7c0.7-0.6,4.7-3.9,4.7-3.9s1.1-1,1.7-1.7c0.8-0.9,1.4-1.9,1.6-3.1
		s0.3-1.6,0.4-3.2s-0.1-4.4-0.7-5.7s-1.4-1.9-2.2-2.4c-0.8-0.5-3-1.3-5-1.4c-1.1-0.1-2.7,0-4,0.3c-1.7,0.3-3,0.7-3,0.7L71.7,21.4z"
		/>
	<polygon class="st0" points="110,19.8 110,15 118.5,15 118.5,47.2 113.5,47.2 113.4,19.8 	"/>
	<path class="st0" d="M140.8,26.3c0-0.9,0-4.2,0-5.1c0-3.7-3.7-6.6-8.3-6.6s-8.3,3-8.3,6.6c0,0.9,0,4.2,0,5.1c0,2,1.1,3.8,2.8,5
		c-1.7,1.2-2.8,3-2.8,5c0,0.9,0,4.2,0,5.1c0,3.7,3.7,6.6,8.3,6.6s8.3-3,8.3-6.6c0-0.9,0-4.2,0-5.1c0-2-1.1-3.8-2.8-5
		C139.7,30.1,140.8,28.3,140.8,26.3z M129.4,22.9c0-2.4,1.4-3.3,3.1-3.3s3.1,1,3.1,3.3v3.2c0,1.8-1.4,3.3-3.1,3.3s-3.1-1.5-3.1-3.3
		V22.9z M135.6,39.7c0,2.4-1.4,3.3-3.1,3.3s-3.1-1-3.1-3.3v-3.2c0-1.8,1.4-3.3,3.1-3.3s3.1,1.5,3.1,3.3V39.7z"/>
	<path class="st0" d="M98.4,14.8c-4.4,0-8,2.6-8,8.3v16.3c0,6.1,3.6,8.3,8,8.3s8.3-2.1,8.3-8.6V22.8
		C106.7,17.4,102.8,14.8,98.4,14.8z M98.5,19.8c1.7,0,3,1.4,3,3.2v0.4l-6.1,10.3V23.1C95.5,21.3,96.8,19.8,98.5,19.8z M98.5,43
		c-1.4,0-2.6-1-2.9-2.4l5.9-10.1v9.2C101.5,41.5,100.2,43,98.5,43z"/>
</g>
</svg>
