<?xml version="1.0" encoding="utf-8"?>
<!-- Generator: Adobe Illustrator 20.1.0, SVG Export Plug-In . SVG Version: 6.00 Build 0)  -->
<svg version="1.1" xmlns="http://www.w3.org/2000/svg" xmlns:xlink="http://www.w3.org/1999/xlink" x="0px" y="0px"
	 viewBox="0 0 600 640" style="enable-background:new 0 0 600 640;" xml:space="preserve">
<style type="text/css">
	.st0{opacity:0.7;fill:#7BC5B6;}
	.st1{opacity:0.62;fill:#5BC4F1;}
	.st2{opacity:0.53;fill:#5BC4F1;}
	.st3{opacity:0.46;fill:#5BC4F1;}
	.st4{opacity:0.53;fill:#7BC5B6;}
	.st5{opacity:0.2;fill:#5BC4F1;}
	.st6{opacity:0.45;fill:#5BC4F1;}
	.st7{opacity:0.7;fill:#5BC4F1;}
	.st8{opacity:0.42;fill:#7BC5B6;}
	.st9{opacity:0.1;fill:#5BC4F1;}
	.st10{opacity:0.61;fill:#7BC5B6;}
	.st11{opacity:0.56;fill:#7BC5B6;}
	.st12{opacity:0.67;fill:#7BC5B6;}
	.st13{opacity:0.54;fill:#7BC5B6;}
	.st14{opacity:0.56;fill:#5BC4F1;}
	.st15{opacity:0.58;fill:#5BC4F1;}
	.st16{opacity:0.69;fill:#5BC4F1;}
	.st17{opacity:0.54;fill:#5BC4F1;}
	
		.st18{opacity:0.7;fill:none;stroke:#FFFFFF;stroke-width:1.5294;stroke-linecap:round;stroke-linejoin:round;stroke-miterlimit:10;}
	
		.st19{opacity:0.5;fill:none;stroke:#FFFFFF;stroke-width:1.5294;stroke-linecap:round;stroke-linejoin:round;stroke-miterlimit:10;}
	
		.st20{opacity:0.57;fill:none;stroke:#FFFFFF;stroke-width:1.5294;stroke-linecap:round;stroke-linejoin:bevel;stroke-miterlimit:10;}
	.st21{fill:none;stroke:#FFFFFF;stroke-width:1.5294;stroke-miterlimit:10;}
	.st22{opacity:0.4;fill:#5BC4F1;}
	
		.st23{opacity:0.4;fill:none;stroke:#FFFFFF;stroke-width:1.5294;stroke-linecap:round;stroke-linejoin:round;stroke-miterlimit:10;}
	
		.st24{opacity:0.6;fill:none;stroke:#FFFFFF;stroke-width:1.5294;stroke-linecap:round;stroke-linejoin:round;stroke-miterlimit:10;}
	
		.st25{opacity:0.45;fill:none;stroke:#FFFFFF;stroke-width:1.5294;stroke-linecap:round;stroke-linejoin:bevel;stroke-miterlimit:10;}
	
		.st26{opacity:0.37;fill:none;stroke:#FFFFFF;stroke-width:1.5294;stroke-linecap:round;stroke-linejoin:bevel;stroke-miterlimit:10;}
	.st27{opacity:0.5;fill:none;stroke:#FFFFFF;stroke-width:1.5294;stroke-miterlimit:10;}
	.st28{opacity:0.3;fill:none;stroke:#FFFFFF;stroke-width:1.5294;stroke-miterlimit:10;}
	.st29{opacity:0.2;fill:#FFFFFF;enable-background:new    ;}
	.st30{opacity:0.73;}
	.st31{fill:#8A549C;}
	.st32{fill:#5FC3E1;}
	.st33{fill:#55B9A1;}
	.st34{fill:#007579;}
	.st35{fill:#EF8050;}
	.st36{fill:#FFD631;}
	.st37{fill:#EB6099;}
	.st38{fill:#B9D26B;}
	.st39{fill:#FFFFFF;}
	.st40{fill:#FFCD44;}
	.st41{opacity:0.7;fill:#FFFFFF;enable-background:new    ;}
	.st42{opacity:0.5;fill:#FFFFFF;enable-background:new    ;}
</style>
<g id="Layer_2">
	<g>
		<circle class="st0" cx="51.8" cy="36.6" r="10.7"/>
		<circle class="st1" cx="584.6" cy="259.6" r="10.7"/>
		<circle class="st2" cx="113.3" cy="74.6" r="25.9"/>
		<circle class="st3" cx="72.1" cy="126" r="25.9"/>
		<circle class="st4" cx="121.6" cy="148.3" r="13.9"/>
		<circle class="st5" cx="443" cy="164.2" r="13.9"/>
		<circle class="st6" cx="481.5" cy="202.8" r="9.5"/>
		<circle class="st7" cx="191.2" cy="206.4" r="63.2"/>
		<circle class="st8" cx="375.3" cy="351.3" r="43.6"/>
		<circle class="st9" cx="216.7" cy="69.4" r="63.2"/>
		<circle class="st10" cx="141.5" cy="359.5" r="90.4"/>
		<circle class="st11" cx="314.7" cy="563" r="70.1"/>
		<circle class="st12" cx="307.7" cy="136.4" r="44.2"/>
		<circle class="st13" cx="335.3" cy="244.7" r="57.5"/>
		<circle class="st14" cx="453.5" cy="312.2" r="25.9"/>
		<circle class="st15" cx="411.3" cy="360.6" r="27.7"/>
		<circle class="st2" cx="16.8" cy="422.9" r="13.9"/>
		<circle class="st2" cx="276.9" cy="301" r="7.7"/>
		<circle class="st2" cx="217.1" cy="461.3" r="25.9"/>
		<circle class="st16" cx="284.2" cy="505.3" r="11.6"/>
		<circle class="st17" cx="184.9" cy="501.8" r="17"/>
		<line class="st18" x1="284" y1="296.6" x2="298.2" y2="289.6"/>
		<line class="st18" x1="227.4" y1="323.6" x2="268.9" y2="303.7"/>
		<line class="st18" x1="393.3" y1="245.5" x2="472.2" y2="207.3"/>
		<line class="st19" x1="448.3" y1="285.9" x2="481.1" y2="213"/>
		<line class="st19" x1="425.4" y1="335.8" x2="430.2" y2="325.3"/>
		<line class="st20" x1="350" y1="501.4" x2="402" y2="387.6"/>
		<path class="st21" d="M388.8,462"/>
		<path class="st21" d="M409.1,440.9"/>
		<circle class="st22" cx="416" cy="447.3" r="13.9"/>
		<path class="st21" d="M461.8,386.1"/>
		<line class="st23" x1="491.1" y1="206.6" x2="574.3" y2="254.3"/>
		<path class="st21" d="M408.5,446.3"/>
		<line class="st18" x1="190.5" y1="459.4" x2="167.8" y2="446.2"/>
		<line class="st18" x1="272.1" y1="506.6" x2="231.9" y2="483.3"/>
		<line class="st24" x1="106.9" y1="149.3" x2="93.2" y2="142.2"/>
		<line class="st24" x1="279" y1="229.2" x2="254.3" y2="217.4"/>
		<line class="st24" x1="430.1" y1="299.5" x2="383.5" y2="277.2"/>
		<path class="st21" d="M411.3,388.3"/>
		<line class="st25" x1="98.6" y1="96.8" x2="89.3" y2="105.7"/>
		<line class="st26" x1="91.6" y1="59" x2="61.7" y2="42.2"/>
		<line class="st19" x1="367" y1="394.7" x2="407.1" y2="435.6"/>
		<line class="st19" x1="282.1" y1="307.8" x2="331.7" y2="358.5"/>
		<path class="st27" d="M281.9,307.6"/>
		<path class="st27" d="M270.4,295.9"/>
		<line class="st19" x1="231.3" y1="256" x2="270.3" y2="295.6"/>
		<line class="st18" x1="194.5" y1="487" x2="200" y2="481.5"/>
		<line class="st28" x1="29.8" y1="418.8" x2="62.1" y2="402.9"/>
	</g>
</g>
<g id="Layer_1">
	<circle class="st29" cx="443.5" cy="164" r="13.9"/>
	<g class="st30">
		<rect x="315.5" y="38.7" class="st31" width="19.6" height="24.1"/>
		<rect x="339.5" y="38.7" class="st32" width="19.6" height="24.1"/>
		<rect x="363.4" y="38.7" class="st33" width="19.6" height="24.1"/>
		<rect x="387.3" y="38.7" class="st34" width="19.6" height="24.1"/>
		<rect x="411.2" y="38.7" class="st35" width="19.6" height="24.1"/>
		<rect x="435.1" y="38.7" class="st36" width="19.6" height="24.1"/>
		<rect x="459" y="38.7" class="st37" width="19.6" height="24.1"/>
		<rect x="482.9" y="38.7" class="st38" width="19.6" height="24.1"/>
	</g>
	<g>
		<path class="st39" d="M323,62.7l-2.3-1.9l4.9-7.4c-0.3,0-0.5,0.1-0.7,0.1s-0.3,0-0.5,0c-1.7,0-3.1-0.7-4.3-2.1
			c-1.2-1.4-1.8-3.1-1.8-5c0-2.1,0.7-3.9,2-5.4s3-2.2,4.8-2.2c1.9,0,3.5,0.7,4.9,2.2s2.1,3.2,2.1,5.2c0,1.8-0.7,3.7-2,5.7L323,62.7z
			 M321.4,46.1c0,1.2,0.4,2.3,1.1,3.1c0.8,0.8,1.7,1.3,2.7,1.3c1.1,0,2-0.4,2.7-1.3c0.8-0.8,1.1-1.9,1.1-3.1s-0.4-2.2-1.1-3.1
			c-0.8-0.8-1.7-1.3-2.7-1.3c-1.1,0-2,0.4-2.7,1.3C321.7,44,321.4,45,321.4,46.1z"/>
		<path class="st39" d="M371.8,42.1h-1.9v-3.4h4.9v24.1h-3.1V42.1H371.8z"/>
		<path class="st39" d="M396.3,51.6v-3c1.3,0,2.2-0.2,2.6-0.5c0.8-0.6,1.2-1.5,1.2-2.8c0-1-0.3-1.8-0.9-2.4
			c-0.6-0.6-1.3-0.9-2.2-0.9c-0.9,0-1.5,0.2-2,0.7s-0.8,1.3-1,2.4h-3c0.3-2.2,1-3.8,2-4.8s2.4-1.5,4.2-1.5c1.8,0,3.3,0.6,4.4,1.8
			s1.7,2.7,1.7,4.6c0,2.1-0.7,3.8-2.2,5c1.7,1.1,2.5,3,2.5,5.5c0,2.1-0.6,3.8-1.9,5.1c-1.2,1.3-2.8,2-4.8,2c-2.5,0-4.3-1-5.5-3.1
			c-0.5-0.9-0.8-2.1-0.9-3.6h3c0.2,1.1,0.5,2,1.2,2.6c0.6,0.6,1.4,0.9,2.4,0.9s1.8-0.4,2.5-1.1c0.7-0.8,1-1.7,1-2.9
			c0-1.6-0.5-2.7-1.5-3.3C398.4,51.8,397.5,51.6,396.3,51.6z"/>
		<path class="st39" d="M420.7,38.7h2.8v15.8c0,6.3-2.8,8.2-6.5,8.2c-1,0-2.3-0.2-3-0.6l0.4-2.5c0.6,0.2,1.4,0.5,2.3,0.5
			c2.5,0,4-1.2,4-5.9L420.7,38.7L420.7,38.7z"/>
		<path class="st39" d="M439.8,38.7v14c0,5.3,2.1,7.6,5,7.6c3.2,0,5.3-2.3,5.3-7.6v-14h2.8v13.8c0,7.3-3.5,10.3-8.2,10.3
			c-4.4,0-7.8-2.8-7.8-10.1v-14C436.9,38.7,439.8,38.7,439.8,38.7z"/>
		<path class="st39" d="M460.7,62.7v-24h3l6.9,12.1c1.6,2.8,2.9,5.3,3.9,7.8h0.1c-0.3-3.2-0.3-6.1-0.3-9.9v-10h2.6v24h-2.8
			l-6.9-12.2c-1.5-2.7-2.9-5.4-4-8h-0.1c0.2,3,0.2,5.9,0.2,9.9v10.3H460.7z"/>
		<path class="st39" d="M497.9,51.4h-8.4v8.7h9.4v2.6h-12.2v-24h11.7v2.6h-8.9v7.6h8.4V51.4z"/>
		<path class="st39" d="M346,49.1h6.5v3.2H346V49.1z"/>
	</g>
	<g>
		<g>
			<g>
				<path class="st39" d="M124.1,38.3h17.6c11.4,0,19.1,0.7,23.1,2.1c4,1.4,7.1,3.7,9.2,6.9c2.1,3.2,3.4,6.7,3.9,10.6
					s0.8,11.6,0.8,23v42.3c0,10.8-0.4,18.1-1.1,21.8c-0.8,3.7-2.1,6.5-4,8.6s-4.3,3.5-7.1,4.3s-7,1.2-12.7,1.2h-29.7
					C124.1,159.1,124.1,38.3,124.1,38.3z M147.7,58.9v79.5c3.4,0,5.5-0.9,6.3-2.7s1.2-6.8,1.2-14.8V74c0-5.5-0.1-9-0.4-10.5
					c-0.3-1.5-0.9-2.7-1.8-3.4C152,59.3,150.3,58.9,147.7,58.9z"/>
				<path class="st39" d="M222.5,38.3v120.9H199V38.3H222.5z"/>
				<path class="st39" d="M293.4,74.8h-21.9v-9c0-4.2-0.3-6.8-0.8-8c-0.6-1.1-1.5-1.7-2.8-1.7c-1.4,0-2.5,0.8-3.2,2.3
					s-1.1,3.9-1.1,7c0,4,0.4,7.1,1.2,9.1c0.8,2,3,4.5,6.7,7.4c10.5,8.3,17.1,15.1,19.8,20.4c2.7,5.3,4.1,13.9,4.1,25.8
					c0,8.6-0.8,15-2.3,19c-1.5,4.1-4.4,7.5-8.8,10.3c-4.3,2.8-9.4,4.1-15.1,4.1c-6.3,0-11.7-1.6-16.2-4.8s-7.4-7.2-8.8-12.2
					c-1.4-4.9-2.1-11.9-2.1-21v-7.9H264v14.7c0,4.5,0.3,7.4,0.9,8.7s1.7,1.9,3.3,1.9s2.7-0.8,3.5-2.5c0.8-1.6,1.1-4.1,1.1-7.3
					c0-7.1-0.7-11.8-2.2-14s-5.2-5.8-11-11c-5.9-5.2-9.7-8.9-11.6-11.3c-1.9-2.3-3.5-5.6-4.7-9.7c-1.3-4.1-1.9-9.4-1.9-15.8
					c0-9.3,0.9-16,2.7-20.3s4.6-7.6,8.6-10s8.7-3.6,14.3-3.6c6.1,0,11.3,1.3,15.6,4c4.3,2.6,7.2,6,8.6,10s2.1,10.8,2.1,20.4
					L293.4,74.8L293.4,74.8z"/>
			</g>
			<g>
				<g>
					<path class="st39" d="M124.1,186.8v-27.6h12.3c1.7,0,3.1,0.6,4.3,1.8s1.8,2.7,1.8,4.3v15.3c0,1.7-0.6,3.1-1.8,4.3
						s-2.6,1.8-4.3,1.8L124.1,186.8L124.1,186.8z M130.3,183.7h3.1c0.9,0,1.6-0.3,2.2-0.9c0.6-0.6,0.9-1.3,0.9-2.2v-15.3
						c0-0.9-0.3-1.6-0.9-2.2c-0.6-0.6-1.3-0.9-2.2-0.9h-3.1V183.7z"/>
					<path class="st39" d="M151.7,186.8v-27.6h6.1v27.6H151.7z"/>
					<path class="st39" d="M179.3,159.2h6.1v17.1c0,2.9-1,5.3-3.1,7.4c-2,2.1-4.5,3.1-7.4,3.1H167v-27.6h6.1v24.5h3.1
						c0.9,0,1.6-0.3,2.2-0.9c0.6-0.6,0.9-1.3,0.9-2.2V159.2z"/>
					<path class="st39" d="M193.1,186.8v-27.6h15.3v3.1h-9.2v9.2h6.1v3.1h-6.1v9.2h9.2v3.1h-15.3V186.8z"/>
					<path class="st39" d="M214.5,186.8v-27.6h12.3c1.7,0,3.1,0.6,4.3,1.8s1.8,2.7,1.8,4.3v1.7c0,1.4-0.5,2.7-1.4,4
						s-2.5,1.9-4.7,1.9h3.1c0.8,0,1.6,0.3,2.2,0.9c0.6,0.6,0.9,1.3,0.9,2.2v10.8h-6.1v-9.2c0-0.8-0.3-1.6-0.9-2.2
						c-0.6-0.6-1.3-0.9-2.2-0.9h-3.1v12.2h-6.2V186.8z M220.7,171.4h3.1c0.9,0,1.6-0.3,2.2-0.9c0.6-0.6,0.9-1.3,0.9-2.2v-3.1
						c0-0.9-0.3-1.6-0.9-2.2c-0.6-0.6-1.3-0.9-2.2-0.9h-3.1V171.4z"/>
					<path class="st39" d="M254.4,165.3h-3.1c-0.3-2.1-1.2-3.1-2.9-3.1c-1.1,0-1.9,0.3-2.4,0.8s-0.8,1.3-0.8,2.3
						c0,0.8,0.3,1.5,0.9,2.2l6.5,7.3c1.2,1.3,1.8,2.8,1.8,4.3v1.5c0,1.7-0.6,3.1-1.8,4.3s-2.6,1.8-4.3,1.8h-3.1
						c-2,0-3.6-0.5-4.6-1.5s-1.5-2.6-1.5-4.6h3.1c0,0.2,0,0.4,0,0.5c0,0.8,0.3,1.5,1,1.9c0.6,0.4,1.3,0.7,2.1,0.7
						c1.1,0,1.9-0.3,2.3-0.8c0.5-0.5,0.7-1.3,0.7-2.3c0-0.8-0.3-1.5-0.9-2.2l-6.5-7.3c-1.2-1.3-1.8-2.8-1.8-4.3v-1.5
						c0-1.7,0.6-3.1,1.8-4.3s2.6-1.8,4.3-1.8h3.1C252.1,159.2,254.2,161.2,254.4,165.3z"/>
					<path class="st39" d="M263.6,186.8v-27.6h6.1v27.6H263.6z"/>
					<path class="st39" d="M282,186.8v-24.5h-6.1v-3.1h18.4v3.1h-6.1v24.5H282z"/>
					<path class="st39" d="M303.4,186.8v-12.2c-4.1-0.5-6.1-2.5-6.1-6.1v-9.2h6.1v9.2c0,0.8,0.3,1.6,0.9,2.2
						c0.6,0.6,1.3,0.9,2.2,0.9c0.9,0,1.6-0.3,2.2-0.9c0.6-0.6,0.9-1.3,0.9-2.2v-9.2h6.1v9.2c0,3.6-2,5.7-6.1,6.1v12.2H303.4z"/>
				</g>
			</g>
			<g>
				<g>
					<path class="st39" d="M353.9,174.1h-10v12.7H341v-27.6h2.9v12.2h10v-12.2h2.9v27.6h-2.9V174.1z"/>
					<path class="st39" d="M360.9,173.1c0-4.7,0.7-8.2,2.2-10.7c1.5-2.4,3.7-3.6,6.7-3.6c1.6,0,3,0.3,4.1,1s2,1.6,2.8,2.9
						c0.7,1.2,1.2,2.7,1.6,4.5s0.5,3.7,0.5,5.9c0,4.7-0.7,8.2-2.2,10.7c-1.5,2.4-3.7,3.6-6.7,3.6c-1.6,0-3-0.3-4.1-1
						s-2.1-1.6-2.8-2.9c-0.7-1.2-1.2-2.7-1.6-4.5C361.1,177.2,360.9,175.2,360.9,173.1z M363.9,173.1c0,1.6,0.1,3,0.3,4.4
						c0.2,1.4,0.6,2.6,1,3.7c0.5,1.1,1.1,1.9,1.8,2.5c0.7,0.6,1.6,0.9,2.7,0.9c1.9,0,3.4-0.9,4.4-2.8c1-1.9,1.5-4.8,1.5-8.7
						c0-1.5-0.1-3-0.3-4.4c-0.2-1.4-0.6-2.6-1-3.7c-0.5-1.1-1.1-1.9-1.8-2.5c-0.7-0.6-1.7-0.9-2.7-0.9c-1.9,0-3.4,0.9-4.4,2.8
						C364.4,166.2,363.9,169.1,363.9,173.1z"/>
					<path class="st39" d="M387,169.3l-1.7-4.3h-0.1l0.4,4.3v17.5h-2.8v-28.1h1.7l10,17.9l1.6,4.1h0.2l-0.4-4.1v-17.5h2.8v28.1h-1.8
						L387,169.3z"/>
					<path class="st39" d="M411.1,173.1h7.4v12.2c-0.7,0.7-1.6,1.2-2.8,1.6c-1.1,0.4-2.3,0.5-3.4,0.5c-1.4,0-2.7-0.3-3.9-0.8
						c-1.2-0.6-2.2-1.4-3-2.6c-0.8-1.2-1.5-2.7-1.9-4.4c-0.5-1.8-0.7-3.9-0.7-6.4c0-2.6,0.3-4.8,0.8-6.6s1.3-3.3,2.2-4.4
						c0.9-1.1,2-2,3.1-2.5c1.2-0.5,2.4-0.8,3.6-0.8s2.3,0.1,3.1,0.3c0.8,0.2,1.5,0.4,2.1,0.7l-0.7,2.7c-0.5-0.3-1.1-0.5-1.8-0.7
						c-0.7-0.2-1.5-0.2-2.4-0.2s-1.8,0.2-2.6,0.6c-0.8,0.4-1.6,1-2.2,2c-0.7,0.9-1.2,2.1-1.6,3.6s-0.6,3.3-0.6,5.4
						c0,3.9,0.6,6.9,1.8,8.7c1.2,1.9,2.9,2.8,5,2.8c1.3,0,2.4-0.3,3.3-1v-8l-5-0.8v-1.9H411.1z"/>
					<path class="st39" d="M435.1,174.1h-1.4v12.8h-2.9v-27.6h2.9v12.9l1.3-0.6l7-12.3h3.3l-7.1,11.9l-1.3,1.3l1.6,1.6l7.8,12.9
						h-3.7L435.1,174.1z"/>
					<path class="st39" d="M447.4,173.1c0-4.7,0.7-8.2,2.2-10.7c1.5-2.4,3.7-3.6,6.7-3.6c1.6,0,3,0.3,4.1,1s2,1.6,2.8,2.9
						c0.7,1.2,1.2,2.7,1.6,4.5c0.3,1.8,0.5,3.7,0.5,5.9c0,4.7-0.7,8.2-2.2,10.7c-1.5,2.4-3.7,3.6-6.7,3.6c-1.6,0-3-0.3-4.1-1
						s-2.1-1.6-2.8-2.9c-0.7-1.2-1.2-2.7-1.6-4.5C447.6,177.2,447.4,175.2,447.4,173.1z M450.5,173.1c0,1.6,0.1,3,0.3,4.4
						c0.2,1.4,0.6,2.6,1,3.7c0.5,1.1,1.1,1.9,1.8,2.5c0.7,0.6,1.6,0.9,2.7,0.9c1.9,0,3.4-0.9,4.4-2.8c1-1.9,1.5-4.8,1.5-8.7
						c0-1.5-0.1-3-0.3-4.4c-0.2-1.4-0.6-2.6-1-3.7c-0.5-1.1-1.1-1.9-1.8-2.5c-0.7-0.6-1.7-0.9-2.7-0.9c-1.9,0-3.4,0.9-4.4,2.8
						C451,166.2,450.5,169.1,450.5,173.1z"/>
					<path class="st39" d="M473.5,169.3l-1.7-4.3h-0.1l0.4,4.3v17.5h-2.8v-28.1h1.7l10,17.9l1.6,4.1h0.2l-0.4-4.1v-17.5h2.8v28.1
						h-1.8L473.5,169.3z"/>
					<path class="st39" d="M497.6,173.1h7.4v12.2c-0.7,0.7-1.6,1.2-2.8,1.6c-1.1,0.4-2.3,0.5-3.4,0.5c-1.4,0-2.7-0.3-3.9-0.8
						c-1.2-0.6-2.2-1.4-3-2.6c-0.8-1.2-1.5-2.7-1.9-4.4c-0.5-1.8-0.7-3.9-0.7-6.4c0-2.6,0.3-4.8,0.8-6.6s1.3-3.3,2.2-4.4
						c0.9-1.1,2-2,3.1-2.5c1.2-0.5,2.4-0.8,3.6-0.8s2.3,0.1,3.1,0.3s1.5,0.4,2.1,0.7l-0.7,2.7c-0.5-0.3-1.1-0.5-1.8-0.7
						c-0.7-0.2-1.5-0.2-2.4-0.2s-1.8,0.2-2.6,0.6c-0.8,0.4-1.6,1-2.2,2c-0.7,0.9-1.2,2.1-1.6,3.6s-0.6,3.3-0.6,5.4
						c0,3.9,0.6,6.9,1.8,8.7c1.2,1.9,2.9,2.8,5,2.8c1.3,0,2.4-0.3,3.3-1v-8l-5-0.8v-1.9H497.6z"/>
				</g>
			</g>
			<rect x="325.1" y="159.2" class="st40" width="2" height="27.6"/>
			<path class="st39" d="M317.2,89.7c0,0,2.7-1.7,6.5-2.9c3.8-1.1,7.7-1.3,10.8-1.1c3,0.2,5.9,1.3,7,2.5c1.1,1.1,1.8,1.7,2.2,4.2
				c0.4,2.5,0.4,5.5,0.2,8c-0.2,2.5-0.5,4-2.5,6.3s-14.7,12.7-14.7,12.7s-2.5,1.6-5.3,4.9c-1.6,1.9-3.2,4.2-4.2,7.2
				c-1.3,3.9-1.4,6.7-1.4,6.7v22H357v-12.9h-26.5V139c0,0,0-2.3,0.7-3.8s1.8-3,3.6-4.6s12.9-10.6,12.9-10.6s3.1-2.7,4.7-4.7
				c2.1-2.6,3.8-5.1,4.5-8.4s0.9-4.3,1.1-8.6c0.2-4.4-0.4-12-2-15.4s-3.8-5.1-5.9-6.5c-2.2-1.3-8.1-3.6-13.6-3.9
				c-2.9-0.1-7.3,0.1-11,0.8c-4.6,0.8-8.2,2-8.2,2L317.2,89.7z"/>
			<polygon class="st39" points="421.3,85.4 421.3,72.3 444.4,72.3 444.4,159.9 430.8,159.9 430.6,85.4 			"/>
			<path class="st39" d="M505.1,103.2c0-2.5,0-11.4,0-13.9c0-10-10.1-18.1-22.5-18.1s-22.5,8.1-22.5,18.1c0,2.5,0,11.4,0,13.9
				c0,5.4,3,10.3,7.7,13.6c-4.7,3.3-7.7,8.2-7.7,13.6c0,2.5,0,11.4,0,13.9c0,10,10.1,18.1,22.5,18.1s22.5-8.1,22.5-18.1
				c0-2.5,0-11.4,0-13.9c0-5.4-3-10.3-7.7-13.6C502.2,113.5,505.1,108.6,505.1,103.2z M474.1,93.9c0-6.5,3.8-9,8.5-9s8.5,2.8,8.5,9
				v8.7c0,5-3.8,9-8.5,9s-8.5-4.1-8.5-9V93.9z M491.1,139.7c0,6.5-3.8,9-8.5,9s-8.5-2.8-8.5-9V131c0-5,3.8-9,8.5-9s8.5,4.1,8.5,9
				V139.7z"/>
			<path class="st39" d="M389.9,71.9c-11.9,0-21.7,7.1-21.7,22.7V139c0,16.7,9.8,22.7,21.7,22.7s22.5-5.7,22.5-23.5V93.7
				C412.4,79,401.8,71.9,389.9,71.9z M390.1,85.6c4.5,0,8.2,3.9,8.2,8.7v1l-16.5,28v-29C381.8,89.5,385.6,85.6,390.1,85.6z
				 M390.1,148.6c-3.8,0-7-2.7-7.9-6.4l16.2-27.5v25.1C398.3,144.6,394.6,148.6,390.1,148.6z"/>
		</g>
		<g>
			<path class="st39" d="M173.1,195.4h-21.4v-3.2h21.4V195.4z"/>
			<path class="st41" d="M151.7,200.5h22.9l-16.3,15.6h14.9v3.2h-22.7l16.3-15.6h-15L151.7,200.5L151.7,200.5z"/>
			<path class="st41" d="M170.1,230.4h-18.4v-3.2h18.4v-4.9h3v13.1h-3V230.4z"/>
			<path class="st41" d="M170.1,250v-8.6H165v8.3h-3v-8.3h-7.2v8.6h-3v-11.8h21.4V250H170.1z"/>
			<path class="st41" d="M160.8,261.5l-9.1,6.6v-3.9l8.8-6.1v-0.6h-8.8v-3.2h21.4v3.8c0,2.8-0.5,4.9-1.6,6.1
				c-1.2,1.4-2.7,2.1-4.7,2.1c-1.5,0-2.8-0.4-3.9-1.3C161.9,264,161.2,262.9,160.8,261.5z M163.3,257.5v1c0,3.1,1.2,4.6,3.5,4.6
				c2.2,0,3.3-1.5,3.3-4.5v-1.2h-6.8V257.5z"/>
			<path class="st41" d="M156.9,283.9v-9.2l-5.2-2.4v-3.5l22.7,10.6l-22.7,10.2v-3.5L156.9,283.9z M160,282.6l7.3-3.2l-7.3-3.3
				V282.6z"/>
			<path class="st41" d="M172,307.2h-3.8c1.6-1.9,2.3-3.8,2.3-5.8c0-2.2-0.8-4.1-2.4-5.6c-1.6-1.5-3.5-2.3-5.8-2.3
				c-2.2,0-4.1,0.8-5.7,2.3c-1.5,1.5-2.3,3.4-2.3,5.6c0,1.1,0.2,2.1,0.6,2.9c0.2,0.4,0.4,0.9,0.7,1.4s0.7,1,1.1,1.5h-3.9
				c-1-1.8-1.6-3.8-1.6-5.8c0-3.1,1.1-5.7,3.2-7.8c2.2-2.2,4.7-3.2,7.8-3.2c2.7,0,5.2,0.9,7.3,2.7c2.6,2.2,3.9,5.1,3.9,8.6
				C173.5,303.5,173,305.4,172,307.2z"/>
			<path class="st41" d="M173.1,340.7h-21.4v-3.2h21.4V340.7z"/>
			<path class="st41" d="M173.1,347l-14.8,5.9l14.8,6v3.5l-23-9.6l23-9.4V347z"/>
			<path class="st41" d="M170.1,376.9v-8.6H165v8.3h-3v-8.3h-7.2v8.6h-3v-11.8h21.4v11.8H170.1z"/>
			<path class="st39" d="M41.6,219.6v-21.4h4.5c2.2,0,3.9,0.2,5.1,0.6c1.3,0.4,2.6,1.1,3.6,2.1c2.2,2,3.3,4.7,3.3,7.9
				c0,3.3-1.2,5.9-3.5,8c-1.2,1-2.4,1.7-3.6,2.1c-1.2,0.4-2.9,0.6-5,0.6L41.6,219.6L41.6,219.6z M44.8,216.6h1.5
				c1.5,0,2.7-0.2,3.6-0.5c1-0.3,1.8-0.8,2.6-1.5c1.6-1.5,2.4-3.3,2.4-5.7c0-2.3-0.8-4.2-2.4-5.7c-1.4-1.3-3.5-2-6.2-2h-1.5
				C44.8,201.2,44.8,216.6,44.8,216.6z"/>
			<path class="st42" d="M74,201.3h-8.6v5.1h8.3v3h-8.3v7.2H74v3H62.2v-21.4H74V201.3z"/>
			<path class="st42" d="M90.3,201.4l-2.6,1.6c-0.5-0.8-1-1.4-1.4-1.7c-0.5-0.3-1.1-0.4-1.8-0.4c-0.9,0-1.6,0.3-2.2,0.8
				s-0.9,1.1-0.9,1.9c0,1,0.8,1.9,2.3,2.5l2.1,0.9c1.7,0.7,3,1.6,3.8,2.6s1.2,2.3,1.2,3.7c0,2-0.7,3.6-2,4.9c-1.3,1.3-3,1.9-4.9,1.9
				s-3.4-0.5-4.6-1.6s-1.9-2.6-2.2-4.6l3.3-0.7c0.1,1.3,0.4,2.1,0.8,2.6c0.7,0.9,1.6,1.4,2.9,1.4c1,0,1.8-0.3,2.5-1s1-1.5,1-2.6
				c0-0.4-0.1-0.8-0.2-1.1s-0.3-0.7-0.5-1s-0.6-0.6-0.9-0.8s-0.8-0.5-1.4-0.7l-2.1-0.9c-2.9-1.2-4.4-3-4.4-5.4c0-1.6,0.6-3,1.8-4
				c1.2-1.1,2.8-1.6,4.6-1.6C87,197.8,88.9,199,90.3,201.4z"/>
			<path class="st42" d="M98,198.2v21.4h-3.2v-21.4H98z"/>
			<path class="st42" d="M114.1,208.5h8.8v0.7c0,1.6-0.2,3-0.6,4.3c-0.4,1.1-1,2.2-1.9,3.2c-2,2.2-4.5,3.4-7.6,3.4
				c-3,0-5.6-1.1-7.7-3.2c-2.1-2.2-3.2-4.8-3.2-7.8c0-3.1,1.1-5.7,3.3-7.9c2.2-2.2,4.8-3.3,7.9-3.3c1.7,0,3.2,0.3,4.7,1
				c1.4,0.7,2.7,1.8,4.1,3.3l-2.3,2.2c-1.8-2.3-3.9-3.5-6.4-3.5c-2.3,0-4.2,0.8-5.7,2.3s-2.3,3.5-2.3,5.8c0,2.4,0.9,4.3,2.6,5.9
				c1.6,1.4,3.3,2.1,5.2,2.1c1.6,0,3-0.5,4.3-1.6s2-2.4,2.1-3.9h-5.3V208.5z"/>
			<path class="st42" d="M127,219.6v-22.9l15.6,16.3v-14.9h3.2v22.7l-15.6-16.3v15L127,219.6L127,219.6z"/>
			<path class="st42" d="M189.5,208.5h8.8v0.7c0,1.6-0.2,3-0.6,4.3c-0.4,1.1-1,2.2-1.9,3.2c-2,2.2-4.5,3.4-7.6,3.4
				c-3,0-5.6-1.1-7.7-3.2c-2.1-2.2-3.2-4.8-3.2-7.8c0-3.1,1.1-5.7,3.3-7.9s4.8-3.3,7.9-3.3c1.7,0,3.2,0.3,4.7,1
				c1.4,0.7,2.7,1.8,4.1,3.3l-2.3,2.2c-1.8-2.3-3.9-3.5-6.4-3.5c-2.3,0-4.2,0.8-5.7,2.3s-2.3,3.5-2.3,5.8c0,2.4,0.9,4.3,2.6,5.9
				c1.6,1.4,3.3,2.1,5.2,2.1c1.6,0,3-0.5,4.3-1.6s2-2.4,2.1-3.9h-5.3L189.5,208.5L189.5,208.5z"/>
			<path class="st39" d="M121.1,315l-2.6,1.6c-0.5-0.8-1-1.4-1.4-1.7c-0.5-0.3-1.1-0.4-1.8-0.4c-0.9,0-1.6,0.3-2.2,0.8
				s-0.9,1.1-0.9,1.9c0,1,0.8,1.9,2.3,2.5l2.1,0.9c1.7,0.7,3,1.6,3.8,2.6s1.2,2.3,1.2,3.7c0,2-0.7,3.6-2,4.9s-3,1.9-4.9,1.9
				s-3.4-0.6-4.6-1.6c-1.2-1.1-1.9-2.6-2.2-4.6l3.3-0.7c0.1,1.3,0.4,2.1,0.8,2.6c0.7,0.9,1.6,1.4,2.9,1.4c1,0,1.8-0.3,2.5-1
				s1-1.5,1-2.6c0-0.4-0.1-0.8-0.2-1.1c-0.1-0.3-0.3-0.7-0.5-1s-0.6-0.6-0.9-0.8c-0.4-0.3-0.8-0.5-1.4-0.7l-2.1-0.9
				c-2.9-1.2-4.4-3-4.4-5.4c0-1.6,0.6-3,1.8-4c1.2-1.1,2.8-1.6,4.6-1.6C117.7,311.4,119.7,312.6,121.1,315z"/>
			<path class="st42" d="M129.6,324l-7-12.2h3.7l4.9,8.5l4.9-8.5h3.7l-7,12.2v9.2h-3.2L129.6,324L129.6,324z"/>
			<path class="st42" d="M153.8,315l-2.6,1.6c-0.5-0.8-1-1.4-1.4-1.7c-0.5-0.3-1.1-0.4-1.8-0.4c-0.9,0-1.6,0.3-2.2,0.8
				c-0.6,0.5-0.9,1.1-0.9,1.9c0,1,0.8,1.9,2.3,2.5l2.1,0.9c1.7,0.7,3,1.6,3.8,2.6s1.2,2.3,1.2,3.7c0,2-0.7,3.6-2,4.9s-3,1.9-4.9,1.9
				s-3.4-0.6-4.6-1.6c-1.2-1.1-1.9-2.6-2.2-4.6l3.3-0.7c0.1,1.3,0.4,2.1,0.8,2.6c0.7,0.9,1.6,1.4,2.9,1.4c1,0,1.8-0.3,2.5-1
				s1-1.5,1-2.6c0-0.4-0.1-0.8-0.2-1.1c-0.1-0.3-0.3-0.7-0.5-1s-0.6-0.6-0.9-0.8c-0.4-0.3-0.8-0.5-1.4-0.7l-2.1-0.9
				c-2.9-1.2-4.4-3-4.4-5.4c0-1.6,0.6-3,1.8-4c1.2-1.1,2.8-1.6,4.6-1.6C150.5,311.4,152.4,312.6,153.8,315z"/>
			<path class="st42" d="M164.5,314.9v18.4h-3.2v-18.4h-4.9v-3h13.1v3H164.5z"/>
			<path class="st42" d="M184.1,314.9h-8.6v5.1h8.3v3h-8.3v7.2h8.6v3h-11.8v-21.4h11.8V314.9z"/>
			<path class="st42" d="M187.6,333.2l4.5-23l7.3,16.6l7.6-16.6l4,23h-3.3l-2.1-12.9l-6.3,13.9l-6.2-13.9l-2.3,12.9H187.6z"/>
			<path class="st42" d="M227.8,315l-2.6,1.6c-0.5-0.8-1-1.4-1.4-1.7c-0.5-0.3-1.1-0.4-1.8-0.4c-0.9,0-1.6,0.3-2.2,0.8
				c-0.6,0.5-0.9,1.1-0.9,1.9c0,1,0.8,1.9,2.3,2.5l2.1,0.9c1.7,0.7,3,1.6,3.8,2.6s1.2,2.3,1.2,3.7c0,2-0.7,3.6-2,4.9s-3,1.9-4.9,1.9
				s-3.4-0.6-4.6-1.6c-1.2-1.1-1.9-2.6-2.2-4.6l3.3-0.7c0.1,1.3,0.4,2.1,0.8,2.6c0.7,0.9,1.6,1.4,2.9,1.4c1,0,1.8-0.3,2.5-1
				s1-1.5,1-2.6c0-0.4-0.1-0.8-0.2-1.1c-0.1-0.3-0.3-0.7-0.5-1s-0.6-0.6-0.9-0.8c-0.4-0.3-0.8-0.5-1.4-0.7l-2.1-0.9
				c-2.9-1.2-4.4-3-4.4-5.4c0-1.6,0.6-3,1.8-4c1.2-1.1,2.8-1.6,4.6-1.6C224.4,311.4,226.4,312.6,227.8,315z"/>
		</g>
	</g>
</g>
</svg>
