<?xml version="1.0" encoding="utf-8"?>
<!-- Generator: Adobe Illustrator 20.1.0, SVG Export Plug-In . SVG Version: 6.00 Build 0)  -->
<svg version="1.1" id="Layer_1" xmlns="http://www.w3.org/2000/svg" xmlns:xlink="http://www.w3.org/1999/xlink" x="0px" y="0px"
	 viewBox="0 0 600 640" style="enable-background:new 0 0 600 640;" xml:space="preserve">
<style type="text/css">
	.st0{opacity:0.3;fill:#FFFFFF;}
	.st1{opacity:0.4;fill:#FFFFFF;}
	.st2{opacity:0.53;fill:#FFFFFF;}
	.st3{opacity:0.24;fill:#FFFFFF;}
	.st4{opacity:0.2;fill:#FFFFFF;}
	.st5{opacity:0.25;fill:#FFFFFF;}
	.st6{opacity:0.3;fill:#F0E400;}
	.st7{opacity:0.1;fill:#FFFFFF;}
	.st8{opacity:0.14;fill:#FFFFFF;}
	.st9{opacity:0.35;fill:#FFFFFF;}
	.st10{opacity:0.47;fill:#FFFFFF;}
	
		.st11{opacity:0.3;fill:none;stroke:#FFFFFF;stroke-width:1.5288;stroke-linecap:round;stroke-linejoin:round;stroke-miterlimit:10;}
	
		.st12{opacity:0.5;fill:none;stroke:#FFFFFF;stroke-width:1.5288;stroke-linecap:round;stroke-linejoin:round;stroke-miterlimit:10;}
	
		.st13{opacity:0.3;fill:none;stroke:#FFFFFF;stroke-width:1.5288;stroke-linecap:round;stroke-linejoin:bevel;stroke-miterlimit:10;}
	.st14{fill:none;stroke:#FFFFFF;stroke-width:1.5288;stroke-miterlimit:10;}
	
		.st15{opacity:0.4;fill:none;stroke:#FFFFFF;stroke-width:1.5288;stroke-linecap:round;stroke-linejoin:round;stroke-miterlimit:10;}
	.st16{opacity:0.5;fill:none;stroke:#FFFFFF;stroke-width:1.5288;stroke-miterlimit:10;}
	.st17{opacity:0.3;fill:none;stroke:#FFFFFF;stroke-width:1.5288;stroke-miterlimit:10;}
	.st18{opacity:0.73;}
	.st19{fill:#8A549C;}
	.st20{fill:#5FC3E1;}
	.st21{fill:#55B9A1;}
	.st22{fill:#007579;}
	.st23{fill:#EF8050;}
	.st24{fill:#FFD631;}
	.st25{fill:#EB6099;}
	.st26{fill:#B9D26B;}
	.st27{fill:#FFFFFF;}
	.st28{fill:#FFCD44;}
	.st29{opacity:0.7;fill:#FFFFFF;}
	.st30{opacity:0.5;fill:#FFFFFF;}
</style>
<circle class="st0" cx="52.5" cy="36.4" r="10.7"/>
<circle class="st1" cx="585.1" cy="259.4" r="10.7"/>
<circle class="st2" cx="114" cy="74.5" r="25.9"/>
<circle class="st3" cx="72.8" cy="125.8" r="25.9"/>
<circle class="st2" cx="122.3" cy="148.1" r="13.9"/>
<circle class="st4" cx="443.5" cy="164" r="13.9"/>
<circle class="st5" cx="482.1" cy="202.6" r="9.5"/>
<circle class="st6" cx="191.9" cy="206.2" r="63.2"/>
<circle class="st4" cx="375.9" cy="351.1" r="43.6"/>
<circle class="st7" cx="217.4" cy="69.3" r="63.2"/>
<circle class="st8" cx="142.2" cy="359.2" r="90.3"/>
<circle class="st4" cx="315.3" cy="562.7" r="70.1"/>
<circle class="st4" cx="308.4" cy="136.2" r="44.2"/>
<circle class="st4" cx="335.9" cy="244.5" r="57.5"/>
<circle class="st9" cx="454" cy="311.9" r="25.9"/>
<circle class="st3" cx="411.9" cy="360.3" r="27.7"/>
<circle class="st2" cx="17.6" cy="422.6" r="13.9"/>
<circle class="st2" cx="277.6" cy="300.8" r="7.7"/>
<circle class="st2" cx="217.8" cy="461" r="25.9"/>
<circle class="st10" cx="284.8" cy="505" r="11.6"/>
<circle class="st3" cx="185.6" cy="501.5" r="17"/>
<line class="st11" x1="284.7" y1="296.4" x2="298.8" y2="289.4"/>
<line class="st11" x1="228" y1="323.4" x2="269.6" y2="303.4"/>
<line class="st11" x1="393.9" y1="245.3" x2="472.8" y2="207.1"/>
<line class="st12" x1="448.9" y1="285.7" x2="481.7" y2="212.8"/>
<line class="st12" x1="426" y1="335.5" x2="430.8" y2="325"/>
<line class="st13" x1="350.6" y1="501.1" x2="402.6" y2="387.3"/>
<path class="st14" d="M389.4,461.7"/>
<path class="st14" d="M409.7,440.7"/>
<circle class="st1" cx="416.6" cy="447" r="13.9"/>
<path class="st14" d="M462.4,385.8"/>
<line class="st11" x1="491.6" y1="206.5" x2="574.8" y2="254.1"/>
<path class="st14" d="M409.1,446"/>
<line class="st15" x1="191.2" y1="459.2" x2="168.5" y2="445.9"/>
<line class="st15" x1="272.7" y1="506.3" x2="232.6" y2="483"/>
<line class="st13" x1="107.6" y1="149.1" x2="93.9" y2="142.1"/>
<line class="st15" x1="279.6" y1="229" x2="255" y2="217.3"/>
<line class="st15" x1="430.7" y1="299.2" x2="384.2" y2="277"/>
<path class="st14" d="M411.9,388"/>
<line class="st13" x1="99.4" y1="96.7" x2="90.1" y2="105.6"/>
<line class="st13" x1="92.4" y1="58.9" x2="62.5" y2="42.1"/>
<line class="st15" x1="367.7" y1="394.4" x2="407.7" y2="435.3"/>
<line class="st15" x1="282.7" y1="307.5" x2="332.4" y2="358.3"/>
<path class="st16" d="M282.5,307.3"/>
<path class="st16" d="M271.1,295.7"/>
<line class="st15" x1="231.9" y1="255.8" x2="270.9" y2="295.4"/>
<line class="st11" x1="195.2" y1="486.7" x2="200.7" y2="481.3"/>
<line class="st17" x1="30.6" y1="418.5" x2="62.8" y2="402.6"/>
<g class="st18">
	<rect x="315.5" y="38.7" class="st19" width="19.6" height="24.1"/>
	<rect x="339.5" y="38.7" class="st20" width="19.6" height="24.1"/>
	<rect x="363.4" y="38.7" class="st21" width="19.6" height="24.1"/>
	<rect x="387.3" y="38.7" class="st22" width="19.6" height="24.1"/>
	<rect x="411.2" y="38.7" class="st23" width="19.6" height="24.1"/>
	<rect x="435.1" y="38.7" class="st24" width="19.6" height="24.1"/>
	<rect x="459" y="38.7" class="st25" width="19.6" height="24.1"/>
	<rect x="482.9" y="38.7" class="st26" width="19.6" height="24.1"/>
</g>
<g>
	<path class="st27" d="M323,62.7l-2.3-1.9l4.9-7.4c-0.3,0-0.5,0.1-0.7,0.1c-0.2,0-0.3,0-0.5,0c-1.7,0-3.1-0.7-4.3-2.1
		c-1.2-1.4-1.8-3.1-1.8-5c0-2.1,0.7-3.9,2-5.4c1.3-1.5,3-2.2,4.8-2.2c1.9,0,3.5,0.7,4.9,2.2c1.4,1.5,2.1,3.2,2.1,5.2
		c0,1.8-0.7,3.7-2,5.7L323,62.7z M321.4,46.1c0,1.2,0.4,2.3,1.1,3.1c0.8,0.8,1.7,1.3,2.7,1.3c1.1,0,2-0.4,2.7-1.3
		c0.8-0.8,1.1-1.9,1.1-3.1s-0.4-2.2-1.1-3.1c-0.8-0.8-1.7-1.3-2.7-1.3c-1.1,0-2,0.4-2.7,1.3C321.7,44,321.4,45,321.4,46.1z"/>
	<path class="st27" d="M371.8,42.1h-1.9l0-3.4h4.9v24.1h-3.1V42.1z"/>
	<path class="st27" d="M396.3,51.6v-3c1.3,0,2.2-0.2,2.6-0.5c0.8-0.6,1.2-1.5,1.2-2.8c0-1-0.3-1.8-0.9-2.4c-0.6-0.6-1.3-0.9-2.2-0.9
		c-0.9,0-1.5,0.2-2,0.7c-0.5,0.5-0.8,1.3-1,2.4H391c0.3-2.2,1-3.8,2-4.8c1-1,2.4-1.5,4.2-1.5c1.8,0,3.3,0.6,4.4,1.8
		c1.1,1.2,1.7,2.7,1.7,4.6c0,2.1-0.7,3.8-2.2,5c1.7,1.1,2.5,3,2.5,5.5c0,2.1-0.6,3.8-1.9,5.1c-1.2,1.3-2.8,2-4.8,2
		c-2.5,0-4.3-1-5.5-3.1c-0.5-0.9-0.8-2.1-0.9-3.6h3c0.2,1.1,0.5,2,1.2,2.6c0.6,0.6,1.4,0.9,2.4,0.9c1,0,1.8-0.4,2.5-1.1
		c0.7-0.8,1-1.7,1-2.9c0-1.6-0.5-2.7-1.5-3.3C398.4,51.8,397.5,51.6,396.3,51.6z"/>
	<path class="st27" d="M420.7,38.7h2.8v15.8c0,6.3-2.8,8.2-6.5,8.2c-1,0-2.3-0.2-3-0.6l0.4-2.5c0.6,0.2,1.4,0.5,2.3,0.5
		c2.5,0,4-1.2,4-5.9V38.7z"/>
	<path class="st27" d="M439.8,38.7v14c0,5.3,2.1,7.6,5,7.6c3.2,0,5.3-2.3,5.3-7.6v-14h2.8v13.8c0,7.3-3.5,10.3-8.2,10.3
		c-4.4,0-7.8-2.8-7.8-10.1v-14H439.8z"/>
	<path class="st27" d="M460.7,62.7v-24h3l6.9,12.1c1.6,2.8,2.9,5.3,3.9,7.8l0.1,0c-0.3-3.2-0.3-6.1-0.3-9.9v-10h2.6v24h-2.8
		l-6.9-12.2c-1.5-2.7-2.9-5.4-4-8l-0.1,0c0.2,3,0.2,5.9,0.2,9.9v10.3H460.7z"/>
	<path class="st27" d="M497.9,51.4h-8.4v8.7h9.4v2.6h-12.2v-24h11.7v2.6h-8.9v7.6h8.4V51.4z"/>
	<path class="st27" d="M346,49.1h6.5v3.2H346V49.1z"/>
</g>
<g>
	<g>
		<g>
			<path class="st27" d="M124.1,38.3h17.6c11.4,0,19.1,0.7,23.1,2.1c4,1.4,7.1,3.7,9.2,6.9c2.1,3.2,3.4,6.7,3.9,10.6
				c0.5,3.9,0.8,11.6,0.8,23v42.3c0,10.8-0.4,18.1-1.1,21.8c-0.8,3.7-2.1,6.5-4,8.6c-1.9,2.1-4.3,3.5-7.1,4.3s-7,1.2-12.7,1.2h-29.7
				V38.3z M147.7,58.9v79.5c3.4,0,5.5-0.9,6.3-2.7c0.8-1.8,1.2-6.8,1.2-14.8V74c0-5.5-0.1-9-0.4-10.5c-0.3-1.5-0.9-2.7-1.8-3.4
				C152,59.3,150.3,58.9,147.7,58.9z"/>
			<path class="st27" d="M222.5,38.3v120.9H199V38.3H222.5z"/>
			<path class="st27" d="M293.4,74.8h-21.9v-9c0-4.2-0.3-6.8-0.8-8c-0.6-1.1-1.5-1.7-2.8-1.7c-1.4,0-2.5,0.8-3.2,2.3
				c-0.7,1.5-1.1,3.9-1.1,7c0,4,0.4,7.1,1.2,9.1c0.8,2,3,4.5,6.7,7.4c10.5,8.3,17.1,15.1,19.8,20.4c2.7,5.3,4.1,13.9,4.1,25.8
				c0,8.6-0.8,15-2.3,19c-1.5,4.1-4.4,7.5-8.8,10.3c-4.3,2.8-9.4,4.1-15.1,4.1c-6.3,0-11.7-1.6-16.2-4.8s-7.4-7.2-8.8-12.2
				c-1.4-4.9-2.1-11.9-2.1-21v-7.9h21.9v14.7c0,4.5,0.3,7.4,0.9,8.7c0.6,1.3,1.7,1.9,3.3,1.9s2.7-0.8,3.5-2.5
				c0.8-1.6,1.1-4.1,1.1-7.3c0-7.1-0.7-11.8-2.2-14c-1.5-2.2-5.2-5.8-11-11c-5.9-5.2-9.7-8.9-11.6-11.3c-1.9-2.3-3.5-5.6-4.7-9.7
				c-1.3-4.1-1.9-9.4-1.9-15.8c0-9.3,0.9-16,2.7-20.3c1.8-4.3,4.6-7.6,8.6-10c4-2.4,8.7-3.6,14.3-3.6c6.1,0,11.3,1.3,15.6,4
				c4.3,2.6,7.2,6,8.6,10c1.4,4,2.1,10.8,2.1,20.4V74.8z"/>
		</g>
		<g>
			<g>
				<path class="st27" d="M124.1,186.8v-27.6h12.3c1.7,0,3.1,0.6,4.3,1.8c1.2,1.2,1.8,2.7,1.8,4.3v15.3c0,1.7-0.6,3.1-1.8,4.3
					c-1.2,1.2-2.6,1.8-4.3,1.8H124.1z M130.3,183.7h3.1c0.9,0,1.6-0.3,2.2-0.9c0.6-0.6,0.9-1.3,0.9-2.2v-15.3c0-0.9-0.3-1.6-0.9-2.2
					c-0.6-0.6-1.3-0.9-2.2-0.9h-3.1V183.7z"/>
				<path class="st27" d="M151.7,186.8v-27.6h6.1v27.6H151.7z"/>
				<path class="st27" d="M179.3,159.2h6.1v17.1c0,2.9-1,5.3-3.1,7.4c-2,2.1-4.5,3.1-7.4,3.1H167v-27.6h6.1v24.5h3.1
					c0.9,0,1.6-0.3,2.2-0.9c0.6-0.6,0.9-1.3,0.9-2.2V159.2z"/>
				<path class="st27" d="M193.1,186.8v-27.6h15.3v3.1h-9.2v9.2h6.1v3.1h-6.1v9.2h9.2v3.1H193.1z"/>
				<path class="st27" d="M214.5,186.8v-27.6h12.3c1.7,0,3.1,0.6,4.3,1.8c1.2,1.2,1.8,2.7,1.8,4.3v1.7c0,1.4-0.5,2.7-1.4,4
					c-0.9,1.3-2.5,1.9-4.7,1.9h3.1c0.8,0,1.6,0.3,2.2,0.9c0.6,0.6,0.9,1.3,0.9,2.2v10.8h-6.1v-9.2c0-0.8-0.3-1.6-0.9-2.2
					c-0.6-0.6-1.3-0.9-2.2-0.9h-3.1v12.2H214.5z M220.7,171.4h3.1c0.9,0,1.6-0.3,2.2-0.9c0.6-0.6,0.9-1.3,0.9-2.2v-3.1
					c0-0.9-0.3-1.6-0.9-2.2c-0.6-0.6-1.3-0.9-2.2-0.9h-3.1V171.4z"/>
				<path class="st27" d="M254.4,165.3h-3.1c-0.3-2.1-1.2-3.1-2.9-3.1c-1.1,0-1.9,0.3-2.4,0.8c-0.5,0.5-0.8,1.3-0.8,2.3
					c0,0.8,0.3,1.5,0.9,2.2l6.5,7.3c1.2,1.3,1.8,2.8,1.8,4.3v1.5c0,1.7-0.6,3.1-1.8,4.3c-1.2,1.2-2.6,1.8-4.3,1.8h-3.1
					c-2,0-3.6-0.5-4.6-1.5c-1-1-1.5-2.6-1.5-4.6h3.1c0,0.2,0,0.4,0,0.5c0,0.8,0.3,1.5,1,1.9c0.6,0.4,1.3,0.7,2.1,0.7
					c1.1,0,1.9-0.3,2.3-0.8c0.5-0.5,0.7-1.3,0.7-2.3c0-0.8-0.3-1.5-0.9-2.2l-6.5-7.3c-1.2-1.3-1.8-2.8-1.8-4.3v-1.5
					c0-1.7,0.6-3.1,1.8-4.3c1.2-1.2,2.6-1.8,4.3-1.8h3.1C252.1,159.2,254.2,161.2,254.4,165.3z"/>
				<path class="st27" d="M263.6,186.8v-27.6h6.1v27.6H263.6z"/>
				<path class="st27" d="M282,186.8v-24.5h-6.1v-3.1h18.4v3.1h-6.1v24.5H282z"/>
				<path class="st27" d="M303.4,186.8v-12.2c-4.1-0.5-6.1-2.5-6.1-6.1v-9.2h6.1v9.2c0,0.8,0.3,1.6,0.9,2.2c0.6,0.6,1.3,0.9,2.2,0.9
					c0.9,0,1.6-0.3,2.2-0.9c0.6-0.6,0.9-1.3,0.9-2.2v-9.2h6.1v9.2c0,3.6-2,5.7-6.1,6.1v12.2H303.4z"/>
			</g>
		</g>
		<g>
			<g>
				<path class="st27" d="M353.9,174.1h-10v12.7H341v-27.6h2.9v12.2h10v-12.2h2.9v27.6h-2.9V174.1z"/>
				<path class="st27" d="M360.9,173.1c0-4.7,0.7-8.2,2.2-10.7c1.5-2.4,3.7-3.6,6.7-3.6c1.6,0,3,0.3,4.1,1c1.1,0.7,2,1.6,2.8,2.9
					c0.7,1.2,1.2,2.7,1.6,4.5s0.5,3.7,0.5,5.9c0,4.7-0.7,8.2-2.2,10.7c-1.5,2.4-3.7,3.6-6.7,3.6c-1.6,0-3-0.3-4.1-1
					c-1.1-0.7-2.1-1.6-2.8-2.9c-0.7-1.2-1.2-2.7-1.6-4.5C361.1,177.2,360.9,175.2,360.9,173.1z M363.9,173.1c0,1.6,0.1,3,0.3,4.4
					c0.2,1.4,0.6,2.6,1,3.7c0.5,1.1,1.1,1.9,1.8,2.5c0.7,0.6,1.6,0.9,2.7,0.9c1.9,0,3.4-0.9,4.4-2.8c1-1.9,1.5-4.8,1.5-8.7
					c0-1.5-0.1-3-0.3-4.4c-0.2-1.4-0.6-2.6-1-3.7c-0.5-1.1-1.1-1.9-1.8-2.5c-0.7-0.6-1.7-0.9-2.7-0.9c-1.9,0-3.4,0.9-4.4,2.8
					C364.4,166.2,363.9,169.1,363.9,173.1z"/>
				<path class="st27" d="M387,169.3l-1.7-4.3h-0.1l0.4,4.3v17.5h-2.8v-28.1h1.7l10,17.9l1.6,4.1h0.2l-0.4-4.1v-17.5h2.8v28.1h-1.8
					L387,169.3z"/>
				<path class="st27" d="M411.1,173.1h7.4v12.2c-0.7,0.7-1.6,1.2-2.8,1.6c-1.1,0.4-2.3,0.5-3.4,0.5c-1.4,0-2.7-0.3-3.9-0.8
					c-1.2-0.6-2.2-1.4-3-2.6c-0.8-1.2-1.5-2.7-1.9-4.4c-0.5-1.8-0.7-3.9-0.7-6.4c0-2.6,0.3-4.8,0.8-6.6c0.5-1.8,1.3-3.3,2.2-4.4
					c0.9-1.1,2-2,3.1-2.5c1.2-0.5,2.4-0.8,3.6-0.8c1.2,0,2.3,0.1,3.1,0.3c0.8,0.2,1.5,0.4,2.1,0.7l-0.7,2.7
					c-0.5-0.3-1.1-0.5-1.8-0.7c-0.7-0.2-1.5-0.2-2.4-0.2c-0.9,0-1.8,0.2-2.6,0.6c-0.8,0.4-1.6,1-2.2,2c-0.7,0.9-1.2,2.1-1.6,3.6
					c-0.4,1.5-0.6,3.3-0.6,5.4c0,3.9,0.6,6.9,1.8,8.7c1.2,1.9,2.9,2.8,5,2.8c1.3,0,2.4-0.3,3.3-1v-8l-5-0.8V173.1z"/>
				<path class="st27" d="M435.1,174.1h-1.4v12.8h-2.9v-27.6h2.9v12.9l1.3-0.6l7-12.3h3.3l-7.1,11.9l-1.3,1.3l1.6,1.6l7.8,12.9h-3.7
					L435.1,174.1z"/>
				<path class="st27" d="M447.4,173.1c0-4.7,0.7-8.2,2.2-10.7c1.5-2.4,3.7-3.6,6.7-3.6c1.6,0,3,0.3,4.1,1c1.1,0.7,2,1.6,2.8,2.9
					c0.7,1.2,1.2,2.7,1.6,4.5c0.3,1.8,0.5,3.7,0.5,5.9c0,4.7-0.7,8.2-2.2,10.7c-1.5,2.4-3.7,3.6-6.7,3.6c-1.6,0-3-0.3-4.1-1
					c-1.1-0.7-2.1-1.6-2.8-2.9c-0.7-1.2-1.2-2.7-1.6-4.5C447.6,177.2,447.4,175.2,447.4,173.1z M450.5,173.1c0,1.6,0.1,3,0.3,4.4
					c0.2,1.4,0.6,2.6,1,3.7c0.5,1.1,1.1,1.9,1.8,2.5c0.7,0.6,1.6,0.9,2.7,0.9c1.9,0,3.4-0.9,4.4-2.8c1-1.9,1.5-4.8,1.5-8.7
					c0-1.5-0.1-3-0.3-4.4c-0.2-1.4-0.6-2.6-1-3.7c-0.5-1.1-1.1-1.9-1.8-2.5c-0.7-0.6-1.7-0.9-2.7-0.9c-1.9,0-3.4,0.9-4.4,2.8
					C451,166.2,450.5,169.1,450.5,173.1z"/>
				<path class="st27" d="M473.5,169.3l-1.7-4.3h-0.1l0.4,4.3v17.5h-2.8v-28.1h1.7l10,17.9l1.6,4.1h0.2l-0.4-4.1v-17.5h2.8v28.1
					h-1.8L473.5,169.3z"/>
				<path class="st27" d="M497.6,173.1h7.4v12.2c-0.7,0.7-1.6,1.2-2.8,1.6c-1.1,0.4-2.3,0.5-3.4,0.5c-1.4,0-2.7-0.3-3.9-0.8
					c-1.2-0.6-2.2-1.4-3-2.6c-0.8-1.2-1.5-2.7-1.9-4.4c-0.5-1.8-0.7-3.9-0.7-6.4c0-2.6,0.3-4.8,0.8-6.6c0.5-1.8,1.3-3.3,2.2-4.4
					c0.9-1.1,2-2,3.1-2.5c1.2-0.5,2.4-0.8,3.6-0.8c1.2,0,2.3,0.1,3.1,0.3s1.5,0.4,2.1,0.7l-0.7,2.7c-0.5-0.3-1.1-0.5-1.8-0.7
					c-0.7-0.2-1.5-0.2-2.4-0.2c-0.9,0-1.8,0.2-2.6,0.6c-0.8,0.4-1.6,1-2.2,2c-0.7,0.9-1.2,2.1-1.6,3.6c-0.4,1.5-0.6,3.3-0.6,5.4
					c0,3.9,0.6,6.9,1.8,8.7c1.2,1.9,2.9,2.8,5,2.8c1.3,0,2.4-0.3,3.3-1v-8l-5-0.8V173.1z"/>
			</g>
		</g>
		<rect x="325.1" y="159.2" class="st28" width="2" height="27.6"/>
		<path class="st27" d="M317.2,89.7c0,0,2.7-1.7,6.5-2.9c3.8-1.1,7.7-1.3,10.8-1.1c3,0.2,5.9,1.3,7,2.5c1.1,1.1,1.8,1.7,2.2,4.2
			c0.4,2.5,0.4,5.5,0.2,8c-0.2,2.5-0.5,4-2.5,6.3c-2,2.3-14.7,12.7-14.7,12.7s-2.5,1.6-5.3,4.9c-1.6,1.9-3.2,4.2-4.2,7.2
			c-1.3,3.9-1.4,6.7-1.4,6.7v22h41.2v-12.9h-26.5V139c0,0,0-2.3,0.7-3.8c0.7-1.5,1.8-3,3.6-4.6s12.9-10.6,12.9-10.6s3.1-2.7,4.7-4.7
			c2.1-2.6,3.8-5.1,4.5-8.4s0.9-4.3,1.1-8.6c0.2-4.4-0.4-12-2-15.4c-1.6-3.4-3.8-5.1-5.9-6.5c-2.2-1.3-8.1-3.6-13.6-3.9
			c-2.9-0.1-7.3,0.1-11,0.8c-4.6,0.8-8.2,2-8.2,2L317.2,89.7z"/>
		<polygon class="st27" points="421.3,85.4 421.3,72.3 444.4,72.3 444.4,159.9 430.8,159.9 430.6,85.4 		"/>
		<path class="st27" d="M505.1,103.2c0-2.5,0-11.4,0-13.9c0-10-10.1-18.1-22.5-18.1s-22.5,8.1-22.5,18.1c0,2.5,0,11.4,0,13.9
			c0,5.4,3,10.3,7.7,13.6c-4.7,3.3-7.7,8.2-7.7,13.6c0,2.5,0,11.4,0,13.9c0,10,10.1,18.1,22.5,18.1s22.5-8.1,22.5-18.1
			c0-2.5,0-11.4,0-13.9c0-5.4-3-10.3-7.7-13.6C502.2,113.5,505.1,108.6,505.1,103.2z M474.1,93.9c0-6.5,3.8-9,8.5-9s8.5,2.8,8.5,9
			v8.7c0,5-3.8,9-8.5,9s-8.5-4.1-8.5-9V93.9z M491.1,139.7c0,6.5-3.8,9-8.5,9s-8.5-2.8-8.5-9v-8.7c0-5,3.8-9,8.5-9s8.5,4.1,8.5,9
			V139.7z"/>
		<path class="st27" d="M389.9,71.9c-11.9,0-21.7,7.1-21.7,22.7v44.4c0,16.7,9.8,22.7,21.7,22.7s22.5-5.7,22.5-23.5V93.7
			C412.4,79,401.8,71.9,389.9,71.9z M390.1,85.6c4.5,0,8.2,3.9,8.2,8.7v1l-16.5,28v-29C381.8,89.5,385.6,85.6,390.1,85.6z
			 M390.1,148.6c-3.8,0-7-2.7-7.9-6.4l16.2-27.5v25.1C398.3,144.6,394.6,148.6,390.1,148.6z"/>
	</g>
	<g>
		<path class="st27" d="M173.1,195.4h-21.4v-3.2h21.4V195.4z"/>
		<path class="st29" d="M151.7,200.5h22.9l-16.3,15.6h14.9v3.2h-22.7l16.3-15.6h-15V200.5z"/>
		<path class="st29" d="M170.1,230.4h-18.4v-3.2h18.4v-4.9h3v13.1h-3V230.4z"/>
		<path class="st29" d="M170.1,250v-8.6H165v8.3h-3v-8.3h-7.2v8.6h-3v-11.8h21.4V250H170.1z"/>
		<path class="st29" d="M160.8,261.5l-9.1,6.6v-3.9l8.8-6.1v-0.6h-8.8v-3.2h21.4v3.8c0,2.8-0.5,4.9-1.6,6.1
			c-1.2,1.4-2.7,2.1-4.7,2.1c-1.5,0-2.8-0.4-3.9-1.3C161.9,264,161.2,262.9,160.8,261.5z M163.3,257.5v1c0,3.1,1.2,4.6,3.5,4.6
			c2.2,0,3.3-1.5,3.3-4.5v-1.2H163.3z"/>
		<path class="st29" d="M156.9,283.9v-9.2l-5.2-2.4v-3.5l22.7,10.6l-22.7,10.2v-3.5L156.9,283.9z M160,282.6l7.3-3.2l-7.3-3.3V282.6
			z"/>
		<path class="st29" d="M172,307.2h-3.8c1.6-1.9,2.3-3.8,2.3-5.8c0-2.2-0.8-4.1-2.4-5.6c-1.6-1.5-3.5-2.3-5.8-2.3
			c-2.2,0-4.1,0.8-5.7,2.3c-1.5,1.5-2.3,3.4-2.3,5.6c0,1.1,0.2,2.1,0.6,2.9c0.2,0.4,0.4,0.9,0.7,1.4c0.3,0.5,0.7,1,1.1,1.5h-3.9
			c-1-1.8-1.6-3.8-1.6-5.8c0-3.1,1.1-5.7,3.2-7.8c2.2-2.2,4.7-3.2,7.8-3.2c2.7,0,5.2,0.9,7.3,2.7c2.6,2.2,3.9,5.1,3.9,8.6
			C173.5,303.5,173,305.4,172,307.2z"/>
		<path class="st29" d="M173.1,340.7h-21.4v-3.2h21.4V340.7z"/>
		<path class="st29" d="M173.1,347l-14.8,5.9l14.8,6v3.5l-23-9.6l23-9.4V347z"/>
		<path class="st29" d="M170.1,376.9v-8.6H165v8.3h-3v-8.3h-7.2v8.6h-3v-11.8h21.4v11.8H170.1z"/>
		<path class="st27" d="M41.6,219.6v-21.4h4.5c2.2,0,3.9,0.2,5.1,0.6c1.3,0.4,2.6,1.1,3.6,2.1c2.2,2,3.3,4.7,3.3,7.9
			c0,3.3-1.2,5.9-3.5,8c-1.2,1-2.4,1.7-3.6,2.1c-1.2,0.4-2.9,0.6-5,0.6H41.6z M44.8,216.6h1.5c1.5,0,2.7-0.2,3.6-0.5
			c1-0.3,1.8-0.8,2.6-1.5c1.6-1.5,2.4-3.3,2.4-5.7c0-2.3-0.8-4.2-2.4-5.7c-1.4-1.3-3.5-2-6.2-2h-1.5V216.6z"/>
		<path class="st30" d="M74,201.3h-8.6v5.1h8.3v3h-8.3v7.2H74v3H62.2v-21.4H74V201.3z"/>
		<path class="st30" d="M90.3,201.4l-2.6,1.6c-0.5-0.8-1-1.4-1.4-1.7c-0.5-0.3-1.1-0.4-1.8-0.4c-0.9,0-1.6,0.3-2.2,0.8
			c-0.6,0.5-0.9,1.1-0.9,1.9c0,1,0.8,1.9,2.3,2.5l2.1,0.9c1.7,0.7,3,1.6,3.8,2.6c0.8,1,1.2,2.3,1.2,3.7c0,2-0.7,3.6-2,4.9
			c-1.3,1.3-3,1.9-4.9,1.9c-1.9,0-3.4-0.5-4.6-1.6c-1.2-1.1-1.9-2.6-2.2-4.6l3.3-0.7c0.1,1.3,0.4,2.1,0.8,2.6
			c0.7,0.9,1.6,1.4,2.9,1.4c1,0,1.8-0.3,2.5-1c0.7-0.7,1-1.5,1-2.6c0-0.4-0.1-0.8-0.2-1.1c-0.1-0.3-0.3-0.7-0.5-1
			c-0.2-0.3-0.6-0.6-0.9-0.8s-0.8-0.5-1.4-0.7l-2.1-0.9c-2.9-1.2-4.4-3-4.4-5.4c0-1.6,0.6-3,1.8-4c1.2-1.1,2.8-1.6,4.6-1.6
			C87,197.8,88.9,199,90.3,201.4z"/>
		<path class="st30" d="M98,198.2v21.4h-3.2v-21.4H98z"/>
		<path class="st30" d="M114.1,208.5h8.8v0.7c0,1.6-0.2,3-0.6,4.3c-0.4,1.1-1,2.2-1.9,3.2c-2,2.2-4.5,3.4-7.6,3.4
			c-3,0-5.6-1.1-7.7-3.2c-2.1-2.2-3.2-4.8-3.2-7.8c0-3.1,1.1-5.7,3.3-7.9c2.2-2.2,4.8-3.3,7.9-3.3c1.7,0,3.2,0.3,4.7,1
			c1.4,0.7,2.7,1.8,4.1,3.3l-2.3,2.2c-1.8-2.3-3.9-3.5-6.4-3.5c-2.3,0-4.2,0.8-5.7,2.3c-1.5,1.5-2.3,3.5-2.3,5.8
			c0,2.4,0.9,4.3,2.6,5.9c1.6,1.4,3.3,2.1,5.2,2.1c1.6,0,3-0.5,4.3-1.6c1.3-1.1,2-2.4,2.1-3.9h-5.3V208.5z"/>
		<path class="st30" d="M127,219.6v-22.9l15.6,16.3v-14.9h3.2v22.7l-15.6-16.3v15H127z"/>
		<path class="st30" d="M189.5,208.5h8.8v0.7c0,1.6-0.2,3-0.6,4.3c-0.4,1.1-1,2.2-1.9,3.2c-2,2.2-4.5,3.4-7.6,3.4
			c-3,0-5.6-1.1-7.7-3.2c-2.1-2.2-3.2-4.8-3.2-7.8c0-3.1,1.1-5.7,3.3-7.9c2.2-2.2,4.8-3.3,7.9-3.3c1.7,0,3.2,0.3,4.7,1
			c1.4,0.7,2.7,1.8,4.1,3.3l-2.3,2.2c-1.8-2.3-3.9-3.5-6.4-3.5c-2.3,0-4.2,0.8-5.7,2.3c-1.5,1.5-2.3,3.5-2.3,5.8
			c0,2.4,0.9,4.3,2.6,5.9c1.6,1.4,3.3,2.1,5.2,2.1c1.6,0,3-0.5,4.3-1.6c1.3-1.1,2-2.4,2.1-3.9h-5.3V208.5z"/>
		<path class="st27" d="M121.1,315l-2.6,1.6c-0.5-0.8-1-1.4-1.4-1.7c-0.5-0.3-1.1-0.4-1.8-0.4c-0.9,0-1.6,0.3-2.2,0.8
			c-0.6,0.5-0.9,1.1-0.9,1.9c0,1,0.8,1.9,2.3,2.5l2.1,0.9c1.7,0.7,3,1.6,3.8,2.6c0.8,1,1.2,2.3,1.2,3.7c0,2-0.7,3.6-2,4.9
			c-1.3,1.3-3,1.9-4.9,1.9c-1.9,0-3.4-0.6-4.6-1.6c-1.2-1.1-1.9-2.6-2.2-4.6l3.3-0.7c0.1,1.3,0.4,2.1,0.8,2.6
			c0.7,0.9,1.6,1.4,2.9,1.4c1,0,1.8-0.3,2.5-1c0.7-0.7,1-1.5,1-2.6c0-0.4-0.1-0.8-0.2-1.1c-0.1-0.3-0.3-0.7-0.5-1
			c-0.2-0.3-0.6-0.6-0.9-0.8c-0.4-0.3-0.8-0.5-1.4-0.7l-2.1-0.9c-2.9-1.2-4.4-3-4.4-5.4c0-1.6,0.6-3,1.8-4c1.2-1.1,2.8-1.6,4.6-1.6
			C117.7,311.4,119.7,312.6,121.1,315z"/>
		<path class="st30" d="M129.6,324l-7-12.2h3.7l4.9,8.5l4.9-8.5h3.7l-7,12.2v9.2h-3.2V324z"/>
		<path class="st30" d="M153.8,315l-2.6,1.6c-0.5-0.8-1-1.4-1.4-1.7c-0.5-0.3-1.1-0.4-1.8-0.4c-0.9,0-1.6,0.3-2.2,0.8
			c-0.6,0.5-0.9,1.1-0.9,1.9c0,1,0.8,1.9,2.3,2.5l2.1,0.9c1.7,0.7,3,1.6,3.8,2.6c0.8,1,1.2,2.3,1.2,3.7c0,2-0.7,3.6-2,4.9
			c-1.3,1.3-3,1.9-4.9,1.9c-1.9,0-3.4-0.6-4.6-1.6c-1.2-1.1-1.9-2.6-2.2-4.6l3.3-0.7c0.1,1.3,0.4,2.1,0.8,2.6
			c0.7,0.9,1.6,1.4,2.9,1.4c1,0,1.8-0.3,2.5-1s1-1.5,1-2.6c0-0.4-0.1-0.8-0.2-1.1c-0.1-0.3-0.3-0.7-0.5-1c-0.2-0.3-0.6-0.6-0.9-0.8
			c-0.4-0.3-0.8-0.5-1.4-0.7l-2.1-0.9c-2.9-1.2-4.4-3-4.4-5.4c0-1.6,0.6-3,1.8-4c1.2-1.1,2.8-1.6,4.6-1.6
			C150.5,311.4,152.4,312.6,153.8,315z"/>
		<path class="st30" d="M164.5,314.9v18.4h-3.2v-18.4h-4.9v-3h13.1v3H164.5z"/>
		<path class="st30" d="M184.1,314.9h-8.6v5.1h8.3v3h-8.3v7.2h8.6v3h-11.8v-21.4h11.8V314.9z"/>
		<path class="st30" d="M187.6,333.2l4.5-23l7.3,16.6l7.6-16.6l4,23h-3.3l-2.1-12.9l-6.3,13.9l-6.2-13.9l-2.3,12.9H187.6z"/>
		<path class="st30" d="M227.8,315l-2.6,1.6c-0.5-0.8-1-1.4-1.4-1.7c-0.5-0.3-1.1-0.4-1.8-0.4c-0.9,0-1.6,0.3-2.2,0.8
			c-0.6,0.5-0.9,1.1-0.9,1.9c0,1,0.8,1.9,2.3,2.5l2.1,0.9c1.7,0.7,3,1.6,3.8,2.6c0.8,1,1.2,2.3,1.2,3.7c0,2-0.7,3.6-2,4.9
			c-1.3,1.3-3,1.9-4.9,1.9c-1.9,0-3.4-0.6-4.6-1.6c-1.2-1.1-1.9-2.6-2.2-4.6l3.3-0.7c0.1,1.3,0.4,2.1,0.8,2.6
			c0.7,0.9,1.6,1.4,2.9,1.4c1,0,1.8-0.3,2.5-1s1-1.5,1-2.6c0-0.4-0.1-0.8-0.2-1.1c-0.1-0.3-0.3-0.7-0.5-1c-0.2-0.3-0.6-0.6-0.9-0.8
			c-0.4-0.3-0.8-0.5-1.4-0.7l-2.1-0.9c-2.9-1.2-4.4-3-4.4-5.4c0-1.6,0.6-3,1.8-4c1.2-1.1,2.8-1.6,4.6-1.6
			C224.4,311.4,226.4,312.6,227.8,315z"/>
	</g>
</g>
</svg>
