<?xml version="1.0" encoding="utf-8"?>
<!-- Generator: Adobe Illustrator 20.1.0, SVG Export Plug-In . SVG Version: 6.00 Build 0)  -->
<svg version="1.1" xmlns="http://www.w3.org/2000/svg" xmlns:xlink="http://www.w3.org/1999/xlink" x="0px" y="0px"
	 viewBox="0 0 600 700" style="enable-background:new 0 0 600 700;" xml:space="preserve">
<style type="text/css">
	.st0{display:none;}
	.st1{display:inline;fill:#AF6868;}
	.st2{opacity:0.3;fill:#FFFFFF;}
	.st3{opacity:0.4;fill:#FFFFFF;}
	.st4{opacity:0.53;fill:#FFFFFF;}
	.st5{opacity:0.24;fill:#FFFFFF;}
	.st6{opacity:0.2;fill:#FFFFFF;}
	.st7{opacity:0.25;fill:#FFFFFF;}
	.st8{opacity:0.3;fill:#F0E400;}
	.st9{opacity:0.1;fill:#FFFFFF;}
	.st10{opacity:0.14;fill:#FFFFFF;}
	.st11{opacity:0.35;fill:#FFFFFF;}
	.st12{opacity:0.47;fill:#FFFFFF;}
	
		.st13{opacity:0.3;fill:none;stroke:#FFFFFF;stroke-width:1.5288;stroke-linecap:round;stroke-linejoin:round;stroke-miterlimit:10;}
	
		.st14{opacity:0.5;fill:none;stroke:#FFFFFF;stroke-width:1.5288;stroke-linecap:round;stroke-linejoin:round;stroke-miterlimit:10;}
	
		.st15{opacity:0.3;fill:none;stroke:#FFFFFF;stroke-width:1.5288;stroke-linecap:round;stroke-linejoin:bevel;stroke-miterlimit:10;}
	.st16{fill:none;stroke:#FFFFFF;stroke-width:1.5288;stroke-miterlimit:10;}
	
		.st17{opacity:0.4;fill:none;stroke:#FFFFFF;stroke-width:1.5288;stroke-linecap:round;stroke-linejoin:round;stroke-miterlimit:10;}
	.st18{opacity:0.5;fill:none;stroke:#FFFFFF;stroke-width:1.5288;stroke-miterlimit:10;}
	.st19{opacity:0.3;fill:none;stroke:#FFFFFF;stroke-width:1.5288;stroke-miterlimit:10;}
	.st20{opacity:0.73;}
	.st21{fill:#8A549C;}
	.st22{fill:#5FC3E1;}
	.st23{fill:#55B9A1;}
	.st24{fill:#007579;}
	.st25{fill:#EF8050;}
	.st26{fill:#FFD631;}
	.st27{fill:#EB6099;}
	.st28{fill:#B9D26B;}
	.st29{fill:#FFFFFF;}
	.st30{fill:#FFCD44;}
	.st31{opacity:0.7;fill:#FFFFFF;}
	.st32{opacity:0.5;fill:#FFFFFF;}
	.st33{opacity:0.7;fill:#7BC5B6;}
	.st34{opacity:0.62;fill:#5BC4F1;}
	.st35{opacity:0.53;fill:#5BC4F1;}
	.st36{opacity:0.46;fill:#5BC4F1;}
	.st37{opacity:0.53;fill:#7BC5B6;}
	.st38{opacity:0.2;fill:#5BC4F1;}
	.st39{opacity:0.45;fill:#5BC4F1;}
	.st40{opacity:0.7;fill:#5BC4F1;}
	.st41{opacity:0.42;fill:#7BC5B6;}
	.st42{opacity:0.1;fill:#5BC4F1;}
	.st43{opacity:0.61;fill:#7BC5B6;}
	.st44{opacity:0.56;fill:#7BC5B6;}
	.st45{opacity:0.67;fill:#7BC5B6;}
	.st46{opacity:0.54;fill:#7BC5B6;}
	.st47{opacity:0.56;fill:#5BC4F1;}
	.st48{opacity:0.58;fill:#5BC4F1;}
	.st49{opacity:0.69;fill:#5BC4F1;}
	.st50{opacity:0.54;fill:#5BC4F1;}
	
		.st51{opacity:0.7;fill:none;stroke:#FFFFFF;stroke-width:1.5294;stroke-linecap:round;stroke-linejoin:round;stroke-miterlimit:10;}
	
		.st52{opacity:0.5;fill:none;stroke:#FFFFFF;stroke-width:1.5294;stroke-linecap:round;stroke-linejoin:round;stroke-miterlimit:10;}
	
		.st53{opacity:0.57;fill:none;stroke:#FFFFFF;stroke-width:1.5294;stroke-linecap:round;stroke-linejoin:bevel;stroke-miterlimit:10;}
	.st54{fill:none;stroke:#FFFFFF;stroke-width:1.5294;stroke-miterlimit:10;}
	.st55{opacity:0.4;fill:#5BC4F1;}
	
		.st56{opacity:0.4;fill:none;stroke:#FFFFFF;stroke-width:1.5294;stroke-linecap:round;stroke-linejoin:round;stroke-miterlimit:10;}
	
		.st57{opacity:0.6;fill:none;stroke:#FFFFFF;stroke-width:1.5294;stroke-linecap:round;stroke-linejoin:round;stroke-miterlimit:10;}
	
		.st58{opacity:0.45;fill:none;stroke:#FFFFFF;stroke-width:1.5294;stroke-linecap:round;stroke-linejoin:bevel;stroke-miterlimit:10;}
	
		.st59{opacity:0.37;fill:none;stroke:#FFFFFF;stroke-width:1.5294;stroke-linecap:round;stroke-linejoin:bevel;stroke-miterlimit:10;}
	.st60{opacity:0.5;fill:none;stroke:#FFFFFF;stroke-width:1.5294;stroke-miterlimit:10;}
	.st61{opacity:0.3;fill:none;stroke:#FFFFFF;stroke-width:1.5294;stroke-miterlimit:10;}
</style>
<g id="Layer_2" class="st0">
	<rect x="1" y="-0.9" class="st1" width="599" height="701"/>
</g>
<g id="Layer_1">
	<circle class="st2" cx="52.5" cy="37.1" r="10.7"/>
	<circle class="st3" cx="585.1" cy="260" r="10.7"/>
	<circle class="st4" cx="114" cy="75.1" r="25.9"/>
	<circle class="st5" cx="72.8" cy="126.5" r="25.9"/>
	<circle class="st4" cx="122.3" cy="148.8" r="13.9"/>
	<circle class="st6" cx="443.5" cy="164.7" r="13.9"/>
	<circle class="st7" cx="482.1" cy="203.2" r="9.5"/>
	<circle class="st8" cx="191.9" cy="206.8" r="63.2"/>
	<circle class="st6" cx="375.9" cy="351.7" r="43.6"/>
	<circle class="st9" cx="217.4" cy="69.9" r="63.2"/>
	<circle class="st10" cx="142.2" cy="359.9" r="90.3"/>
	<circle class="st6" cx="315.3" cy="563.3" r="70.1"/>
	<circle class="st6" cx="308.4" cy="136.9" r="44.2"/>
	<circle class="st6" cx="335.9" cy="245.1" r="57.5"/>
	<circle class="st11" cx="454" cy="312.5" r="25.9"/>
	<circle class="st5" cx="411.9" cy="360.9" r="27.7"/>
	<circle class="st4" cx="17.6" cy="423.2" r="13.9"/>
	<circle class="st4" cx="277.6" cy="301.4" r="7.7"/>
	<circle class="st4" cx="217.8" cy="461.6" r="25.9"/>
	<circle class="st12" cx="284.8" cy="505.6" r="11.6"/>
	<circle class="st5" cx="185.6" cy="502.1" r="17"/>
	<line class="st13" x1="284.7" y1="297" x2="298.8" y2="290"/>
	<line class="st13" x1="228" y1="324" x2="269.6" y2="304.1"/>
	<line class="st13" x1="393.9" y1="245.9" x2="472.8" y2="207.7"/>
	<line class="st14" x1="448.9" y1="286.3" x2="481.7" y2="213.4"/>
	<line class="st14" x1="426" y1="336.2" x2="430.8" y2="325.7"/>
	<line class="st15" x1="350.6" y1="501.7" x2="402.6" y2="387.9"/>
	<path class="st16" d="M389.4,462.3"/>
	<path class="st16" d="M409.7,441.3"/>
	<circle class="st3" cx="416.6" cy="447.6" r="13.9"/>
	<path class="st16" d="M462.4,386.5"/>
	<line class="st13" x1="491.6" y1="207.1" x2="574.8" y2="254.7"/>
	<path class="st16" d="M409.1,446.6"/>
	<line class="st17" x1="191.2" y1="459.8" x2="168.5" y2="446.5"/>
	<line class="st17" x1="272.7" y1="507" x2="232.6" y2="483.6"/>
	<line class="st15" x1="107.6" y1="149.8" x2="93.9" y2="142.7"/>
	<line class="st17" x1="279.6" y1="229.6" x2="255" y2="217.9"/>
	<line class="st17" x1="430.7" y1="299.9" x2="384.2" y2="277.6"/>
	<path class="st16" d="M411.9,388.6"/>
	<line class="st15" x1="99.4" y1="97.3" x2="90.1" y2="106.2"/>
	<line class="st15" x1="92.4" y1="59.5" x2="62.5" y2="42.7"/>
	<line class="st17" x1="367.7" y1="395.1" x2="407.7" y2="435.9"/>
	<line class="st17" x1="282.7" y1="308.2" x2="332.4" y2="358.9"/>
	<path class="st18" d="M282.5,308"/>
	<path class="st18" d="M271.1,296.3"/>
	<line class="st17" x1="231.9" y1="256.4" x2="270.9" y2="296"/>
	<line class="st13" x1="195.2" y1="487.3" x2="200.7" y2="481.9"/>
	<line class="st19" x1="30.6" y1="419.1" x2="62.8" y2="403.2"/>
	<g class="st20">
		<rect x="315.5" y="39.3" class="st21" width="19.6" height="24.1"/>
		<rect x="339.5" y="39.3" class="st22" width="19.6" height="24.1"/>
		<rect x="363.4" y="39.3" class="st23" width="19.6" height="24.1"/>
		<rect x="387.3" y="39.3" class="st24" width="19.6" height="24.1"/>
		<rect x="411.2" y="39.3" class="st25" width="19.6" height="24.1"/>
		<rect x="435.1" y="39.3" class="st26" width="19.6" height="24.1"/>
		<rect x="459" y="39.3" class="st27" width="19.6" height="24.1"/>
		<rect x="482.9" y="39.3" class="st28" width="19.6" height="24.1"/>
	</g>
	<g>
		<path class="st29" d="M323,63.3l-2.3-1.9l4.9-7.4c-0.3,0-0.5,0.1-0.7,0.1c-0.2,0-0.3,0-0.5,0c-1.7,0-3.1-0.7-4.3-2.1
			c-1.2-1.4-1.8-3.1-1.8-5c0-2.1,0.7-3.9,2-5.4c1.3-1.5,3-2.2,4.8-2.2c1.9,0,3.5,0.7,4.9,2.2c1.4,1.5,2.1,3.2,2.1,5.2
			c0,1.8-0.7,3.7-2,5.7L323,63.3z M321.4,46.8c0,1.2,0.4,2.3,1.1,3.1c0.8,0.8,1.7,1.3,2.7,1.3c1.1,0,2-0.4,2.7-1.3
			c0.8-0.8,1.1-1.9,1.1-3.1s-0.4-2.2-1.1-3.1c-0.8-0.8-1.7-1.3-2.7-1.3c-1.1,0-2,0.4-2.7,1.3C321.7,44.6,321.4,45.6,321.4,46.8z"/>
		<path class="st29" d="M371.8,42.7h-1.9l0-3.4h4.9v24.1h-3.1V42.7z"/>
		<path class="st29" d="M396.3,52.2v-3c1.3,0,2.2-0.2,2.6-0.5c0.8-0.6,1.2-1.5,1.2-2.8c0-1-0.3-1.8-0.9-2.4
			c-0.6-0.6-1.3-0.9-2.2-0.9c-0.9,0-1.5,0.2-2,0.7c-0.5,0.5-0.8,1.3-1,2.4H391c0.3-2.2,1-3.8,2-4.8c1-1,2.4-1.5,4.2-1.5
			c1.8,0,3.3,0.6,4.4,1.8c1.1,1.2,1.7,2.7,1.7,4.6c0,2.1-0.7,3.8-2.2,5c1.7,1.1,2.5,3,2.5,5.5c0,2.1-0.6,3.8-1.9,5.1
			c-1.2,1.3-2.8,2-4.8,2c-2.5,0-4.3-1-5.5-3.1c-0.5-0.9-0.8-2.1-0.9-3.6h3c0.2,1.1,0.5,2,1.2,2.6c0.6,0.6,1.4,0.9,2.4,0.9
			c1,0,1.8-0.4,2.5-1.1c0.7-0.8,1-1.7,1-2.9c0-1.6-0.5-2.7-1.5-3.3C398.4,52.4,397.5,52.2,396.3,52.2z"/>
		<path class="st29" d="M420.7,39.3h2.8v15.8c0,6.3-2.8,8.2-6.5,8.2c-1,0-2.3-0.2-3-0.6l0.4-2.5c0.6,0.2,1.4,0.5,2.3,0.5
			c2.5,0,4-1.2,4-5.9V39.3z"/>
		<path class="st29" d="M439.8,39.3v14c0,5.3,2.1,7.6,5,7.6c3.2,0,5.3-2.3,5.3-7.6v-14h2.8v13.8c0,7.3-3.5,10.3-8.2,10.3
			c-4.4,0-7.8-2.8-7.8-10.1v-14H439.8z"/>
		<path class="st29" d="M460.7,63.3v-24h3l6.9,12.1c1.6,2.8,2.9,5.3,3.9,7.8l0.1,0c-0.3-3.2-0.3-6.1-0.3-9.9v-10h2.6v24h-2.8
			l-6.9-12.2c-1.5-2.7-2.9-5.4-4-8l-0.1,0c0.2,3,0.2,5.9,0.2,9.9v10.3H460.7z"/>
		<path class="st29" d="M497.9,52.1h-8.4v8.7h9.4v2.6h-12.2v-24h11.7v2.6h-8.9v7.6h8.4V52.1z"/>
		<path class="st29" d="M346,49.8h6.5v3.2H346V49.8z"/>
	</g>
	<g>
		<g>
			<g>
				<path class="st29" d="M124.1,38.9h17.6c11.4,0,19.1,0.7,23.1,2.1c4,1.4,7.1,3.7,9.2,6.9c2.1,3.2,3.4,6.7,3.9,10.6
					c0.5,3.9,0.8,11.6,0.8,23v42.3c0,10.8-0.4,18.1-1.1,21.8c-0.8,3.7-2.1,6.5-4,8.6c-1.9,2.1-4.3,3.5-7.1,4.3
					c-2.8,0.8-7,1.2-12.7,1.2h-29.7V38.9z M147.7,59.6v79.5c3.4,0,5.5-0.9,6.3-2.7c0.8-1.8,1.2-6.8,1.2-14.8v-47
					c0-5.5-0.1-9-0.4-10.5c-0.3-1.5-0.9-2.7-1.8-3.4C152,59.9,150.3,59.6,147.7,59.6z"/>
				<path class="st29" d="M222.5,38.9v120.9H199V38.9H222.5z"/>
				<path class="st29" d="M293.4,75.5h-21.9v-9c0-4.2-0.3-6.8-0.8-8c-0.6-1.1-1.5-1.7-2.8-1.7c-1.4,0-2.5,0.8-3.2,2.3
					c-0.7,1.5-1.1,3.9-1.1,7c0,4,0.4,7.1,1.2,9.1c0.8,2,3,4.5,6.7,7.4c10.5,8.3,17.1,15.1,19.8,20.4c2.7,5.3,4.1,13.9,4.1,25.8
					c0,8.6-0.8,15-2.3,19c-1.5,4.1-4.4,7.5-8.8,10.3c-4.3,2.8-9.4,4.1-15.1,4.1c-6.3,0-11.7-1.6-16.2-4.8s-7.4-7.2-8.8-12.2
					c-1.4-4.9-2.1-11.9-2.1-21v-7.9h21.9v14.7c0,4.5,0.3,7.4,0.9,8.7c0.6,1.3,1.7,1.9,3.3,1.9s2.7-0.8,3.5-2.5
					c0.8-1.6,1.1-4.1,1.1-7.3c0-7.1-0.7-11.8-2.2-14c-1.5-2.2-5.2-5.8-11-11c-5.9-5.2-9.7-8.9-11.6-11.3c-1.9-2.3-3.5-5.6-4.7-9.7
					c-1.3-4.1-1.9-9.4-1.9-15.8c0-9.3,0.9-16,2.7-20.3c1.8-4.3,4.6-7.6,8.6-10c4-2.4,8.7-3.6,14.3-3.6c6.1,0,11.3,1.3,15.6,4
					c4.3,2.6,7.2,6,8.6,10c1.4,4,2.1,10.8,2.1,20.4V75.5z"/>
			</g>
			<g>
				<g>
					<path class="st29" d="M124.1,187.4v-27.6h12.3c1.7,0,3.1,0.6,4.3,1.8c1.2,1.2,1.8,2.7,1.8,4.3v15.3c0,1.7-0.6,3.1-1.8,4.3
						c-1.2,1.2-2.6,1.8-4.3,1.8H124.1z M130.3,184.3h3.1c0.9,0,1.6-0.3,2.2-0.9c0.6-0.6,0.9-1.3,0.9-2.2V166c0-0.9-0.3-1.6-0.9-2.2
						c-0.6-0.6-1.3-0.9-2.2-0.9h-3.1V184.3z"/>
					<path class="st29" d="M151.7,187.4v-27.6h6.1v27.6H151.7z"/>
					<path class="st29" d="M179.3,159.8h6.1v17.1c0,2.9-1,5.3-3.1,7.4c-2,2.1-4.5,3.1-7.4,3.1H167v-27.6h6.1v24.5h3.1
						c0.9,0,1.6-0.3,2.2-0.9c0.6-0.6,0.9-1.3,0.9-2.2V159.8z"/>
					<path class="st29" d="M193.1,187.4v-27.6h15.3v3.1h-9.2v9.2h6.1v3.1h-6.1v9.2h9.2v3.1H193.1z"/>
					<path class="st29" d="M214.5,187.4v-27.6h12.3c1.7,0,3.1,0.6,4.3,1.8c1.2,1.2,1.8,2.7,1.8,4.3v1.7c0,1.4-0.5,2.7-1.4,4
						c-0.9,1.3-2.5,1.9-4.7,1.9h3.1c0.8,0,1.6,0.3,2.2,0.9c0.6,0.6,0.9,1.3,0.9,2.2v10.8h-6.1v-9.2c0-0.8-0.3-1.6-0.9-2.2
						c-0.6-0.6-1.3-0.9-2.2-0.9h-3.1v12.2H214.5z M220.7,172.1h3.1c0.9,0,1.6-0.3,2.2-0.9c0.6-0.6,0.9-1.3,0.9-2.2V166
						c0-0.9-0.3-1.6-0.9-2.2c-0.6-0.6-1.3-0.9-2.2-0.9h-3.1V172.1z"/>
					<path class="st29" d="M254.4,166h-3.1c-0.3-2.1-1.2-3.1-2.9-3.1c-1.1,0-1.9,0.3-2.4,0.8c-0.5,0.5-0.8,1.3-0.8,2.3
						c0,0.8,0.3,1.5,0.9,2.2l6.5,7.3c1.2,1.3,1.8,2.8,1.8,4.3v1.5c0,1.7-0.6,3.1-1.8,4.3c-1.2,1.2-2.6,1.8-4.3,1.8h-3.1
						c-2,0-3.6-0.5-4.6-1.5c-1-1-1.5-2.6-1.5-4.6h3.1c0,0.2,0,0.4,0,0.5c0,0.8,0.3,1.5,1,1.9c0.6,0.4,1.3,0.7,2.1,0.7
						c1.1,0,1.9-0.3,2.3-0.8c0.5-0.5,0.7-1.3,0.7-2.3c0-0.8-0.3-1.5-0.9-2.2l-6.5-7.3c-1.2-1.3-1.8-2.8-1.8-4.3V166
						c0-1.7,0.6-3.1,1.8-4.3c1.2-1.2,2.6-1.8,4.3-1.8h3.1C252.1,159.8,254.2,161.9,254.4,166z"/>
					<path class="st29" d="M263.6,187.4v-27.6h6.1v27.6H263.6z"/>
					<path class="st29" d="M282,187.4v-24.5h-6.1v-3.1h18.4v3.1h-6.1v24.5H282z"/>
					<path class="st29" d="M303.4,187.4v-12.2c-4.1-0.5-6.1-2.5-6.1-6.1v-9.2h6.1v9.2c0,0.8,0.3,1.6,0.9,2.2
						c0.6,0.6,1.3,0.9,2.2,0.9c0.9,0,1.6-0.3,2.2-0.9c0.6-0.6,0.9-1.3,0.9-2.2v-9.2h6.1v9.2c0,3.6-2,5.7-6.1,6.1v12.2H303.4z"/>
				</g>
			</g>
			<g>
				<g>
					<path class="st29" d="M353.9,174.7h-10v12.7H341v-27.6h2.9V172h10v-12.2h2.9v27.6h-2.9V174.7z"/>
					<path class="st29" d="M360.9,173.7c0-4.7,0.7-8.2,2.2-10.7c1.5-2.4,3.7-3.6,6.7-3.6c1.6,0,3,0.3,4.1,1c1.1,0.7,2,1.6,2.8,2.9
						c0.7,1.2,1.2,2.7,1.6,4.5s0.5,3.7,0.5,5.9c0,4.7-0.7,8.2-2.2,10.7c-1.5,2.4-3.7,3.6-6.7,3.6c-1.6,0-3-0.3-4.1-1
						c-1.1-0.7-2.1-1.6-2.8-2.9c-0.7-1.2-1.2-2.7-1.6-4.5C361.1,177.8,360.9,175.9,360.9,173.7z M363.9,173.7c0,1.6,0.1,3,0.3,4.4
						c0.2,1.4,0.6,2.6,1,3.7c0.5,1.1,1.1,1.9,1.8,2.5c0.7,0.6,1.6,0.9,2.7,0.9c1.9,0,3.4-0.9,4.4-2.8c1-1.9,1.5-4.8,1.5-8.7
						c0-1.5-0.1-3-0.3-4.4c-0.2-1.4-0.6-2.6-1-3.7c-0.5-1.1-1.1-1.9-1.8-2.5c-0.7-0.6-1.7-0.9-2.7-0.9c-1.9,0-3.4,0.9-4.4,2.8
						C364.4,166.8,363.9,169.8,363.9,173.7z"/>
					<path class="st29" d="M387,170l-1.7-4.3h-0.1l0.4,4.3v17.5h-2.8v-28.1h1.7l10,17.9l1.6,4.1h0.2l-0.4-4.1v-17.5h2.8v28.1h-1.8
						L387,170z"/>
					<path class="st29" d="M411.1,173.7h7.4v12.2c-0.7,0.7-1.6,1.2-2.8,1.6c-1.1,0.4-2.3,0.5-3.4,0.5c-1.4,0-2.7-0.3-3.9-0.8
						c-1.2-0.6-2.2-1.4-3-2.6c-0.8-1.2-1.5-2.7-1.9-4.4c-0.5-1.8-0.7-3.9-0.7-6.4c0-2.6,0.3-4.8,0.8-6.6c0.5-1.8,1.3-3.3,2.2-4.4
						c0.9-1.1,2-2,3.1-2.5c1.2-0.5,2.4-0.8,3.6-0.8c1.2,0,2.3,0.1,3.1,0.3c0.8,0.2,1.5,0.4,2.1,0.7l-0.7,2.7
						c-0.5-0.3-1.1-0.5-1.8-0.7c-0.7-0.2-1.5-0.2-2.4-0.2c-0.9,0-1.8,0.2-2.6,0.6c-0.8,0.4-1.6,1-2.2,2c-0.7,0.9-1.2,2.1-1.6,3.6
						c-0.4,1.5-0.6,3.3-0.6,5.4c0,3.9,0.6,6.9,1.8,8.7c1.2,1.9,2.9,2.8,5,2.8c1.3,0,2.4-0.3,3.3-1v-8l-5-0.8V173.7z"/>
					<path class="st29" d="M435.1,174.7h-1.4v12.8h-2.9v-27.6h2.9v12.9l1.3-0.6l7-12.3h3.3l-7.1,11.9l-1.3,1.3l1.6,1.6l7.8,12.9
						h-3.7L435.1,174.7z"/>
					<path class="st29" d="M447.4,173.7c0-4.7,0.7-8.2,2.2-10.7c1.5-2.4,3.7-3.6,6.7-3.6c1.6,0,3,0.3,4.1,1c1.1,0.7,2,1.6,2.8,2.9
						c0.7,1.2,1.2,2.7,1.6,4.5c0.3,1.8,0.5,3.7,0.5,5.9c0,4.7-0.7,8.2-2.2,10.7c-1.5,2.4-3.7,3.6-6.7,3.6c-1.6,0-3-0.3-4.1-1
						c-1.1-0.7-2.1-1.6-2.8-2.9c-0.7-1.2-1.2-2.7-1.6-4.5C447.6,177.8,447.4,175.9,447.4,173.7z M450.5,173.7c0,1.6,0.1,3,0.3,4.4
						c0.2,1.4,0.6,2.6,1,3.7c0.5,1.1,1.1,1.9,1.8,2.5c0.7,0.6,1.6,0.9,2.7,0.9c1.9,0,3.4-0.9,4.4-2.8c1-1.9,1.5-4.8,1.5-8.7
						c0-1.5-0.1-3-0.3-4.4c-0.2-1.4-0.6-2.6-1-3.7c-0.5-1.1-1.1-1.9-1.8-2.5c-0.7-0.6-1.7-0.9-2.7-0.9c-1.9,0-3.4,0.9-4.4,2.8
						C451,166.8,450.5,169.8,450.5,173.7z"/>
					<path class="st29" d="M473.5,170l-1.7-4.3h-0.1l0.4,4.3v17.5h-2.8v-28.1h1.7l10,17.9l1.6,4.1h0.2l-0.4-4.1v-17.5h2.8v28.1h-1.8
						L473.5,170z"/>
					<path class="st29" d="M497.6,173.7h7.4v12.2c-0.7,0.7-1.6,1.2-2.8,1.6c-1.1,0.4-2.3,0.5-3.4,0.5c-1.4,0-2.7-0.3-3.9-0.8
						c-1.2-0.6-2.2-1.4-3-2.6c-0.8-1.2-1.5-2.7-1.9-4.4c-0.5-1.8-0.7-3.9-0.7-6.4c0-2.6,0.3-4.8,0.8-6.6c0.5-1.8,1.3-3.3,2.2-4.4
						c0.9-1.1,2-2,3.1-2.5c1.2-0.5,2.4-0.8,3.6-0.8c1.2,0,2.3,0.1,3.1,0.3s1.5,0.4,2.1,0.7l-0.7,2.7c-0.5-0.3-1.1-0.5-1.8-0.7
						c-0.7-0.2-1.5-0.2-2.4-0.2c-0.9,0-1.8,0.2-2.6,0.6c-0.8,0.4-1.6,1-2.2,2c-0.7,0.9-1.2,2.1-1.6,3.6c-0.4,1.5-0.6,3.3-0.6,5.4
						c0,3.9,0.6,6.9,1.8,8.7c1.2,1.9,2.9,2.8,5,2.8c1.3,0,2.4-0.3,3.3-1v-8l-5-0.8V173.7z"/>
				</g>
			</g>
			<rect x="325.1" y="159.8" class="st30" width="2" height="27.6"/>
			<path class="st29" d="M317.2,90.4c0,0,2.7-1.7,6.5-2.9c3.8-1.1,7.7-1.3,10.8-1.1c3,0.2,5.9,1.3,7,2.5c1.1,1.1,1.8,1.7,2.2,4.2
				c0.4,2.5,0.4,5.5,0.2,8c-0.2,2.5-0.5,4-2.5,6.3S326.5,120,326.5,120s-2.5,1.6-5.3,4.9c-1.6,1.9-3.2,4.2-4.2,7.2
				c-1.3,3.9-1.4,6.7-1.4,6.7v22h41.2v-12.9h-26.5v-8.4c0,0,0-2.3,0.7-3.8c0.7-1.5,1.8-3,3.6-4.6c1.8-1.5,12.9-10.6,12.9-10.6
				s3.1-2.7,4.7-4.7c2.1-2.6,3.8-5.1,4.5-8.4s0.9-4.3,1.1-8.6c0.2-4.4-0.4-12-2-15.4c-1.6-3.4-3.8-5.1-5.9-6.5
				c-2.2-1.3-8.1-3.6-13.6-3.9c-2.9-0.1-7.3,0.1-11,0.8c-4.6,0.8-8.2,2-8.2,2L317.2,90.4z"/>
			<polygon class="st29" points="421.3,86 421.3,72.9 444.4,72.9 444.4,160.5 430.8,160.5 430.6,86 			"/>
			<path class="st29" d="M505.1,103.8c0-2.5,0-11.4,0-13.9c0-10-10.1-18.1-22.5-18.1S460.2,80,460.2,90c0,2.5,0,11.4,0,13.9
				c0,5.4,3,10.3,7.7,13.6c-4.7,3.3-7.7,8.2-7.7,13.6c0,2.5,0,11.4,0,13.9c0,10,10.1,18.1,22.5,18.1s22.5-8.1,22.5-18.1
				c0-2.5,0-11.4,0-13.9c0-5.4-3-10.3-7.7-13.6C502.2,114.1,505.1,109.3,505.1,103.8z M474.1,94.5c0-6.5,3.8-9,8.5-9s8.5,2.8,8.5,9
				v8.7c0,5-3.8,9-8.5,9s-8.5-4.1-8.5-9V94.5z M491.1,140.4c0,6.5-3.8,9-8.5,9s-8.5-2.8-8.5-9v-8.7c0-5,3.8-9,8.5-9s8.5,4.1,8.5,9
				V140.4z"/>
			<path class="st29" d="M389.9,72.5c-11.9,0-21.7,7.1-21.7,22.7v44.4c0,16.7,9.8,22.7,21.7,22.7s22.5-5.7,22.5-23.5V94.3
				C412.4,79.6,401.8,72.5,389.9,72.5z M390.1,86.2c4.5,0,8.2,3.9,8.2,8.7v1l-16.5,28v-29C381.8,90.1,385.6,86.2,390.1,86.2z
				 M390.1,149.2c-3.8,0-7-2.7-7.9-6.4l16.2-27.5v25.1C398.3,145.2,394.6,149.2,390.1,149.2z"/>
		</g>
		<g>
			<path class="st29" d="M173.1,196h-21.4v-3.2h21.4V196z"/>
			<path class="st31" d="M151.7,201.2h22.9l-16.3,15.6h14.9v3.2h-22.7l16.3-15.6h-15V201.2z"/>
			<path class="st31" d="M170.1,231h-18.4v-3.2h18.4v-4.9h3v13.1h-3V231z"/>
			<path class="st31" d="M170.1,250.6V242H165v8.3h-3V242h-7.2v8.6h-3v-11.8h21.4v11.8H170.1z"/>
			<path class="st31" d="M160.8,262.1l-9.1,6.6v-3.9l8.8-6.1v-0.6h-8.8v-3.2h21.4v3.8c0,2.8-0.5,4.9-1.6,6.1
				c-1.2,1.4-2.7,2.1-4.7,2.1c-1.5,0-2.8-0.4-3.9-1.3C161.9,264.7,161.2,263.5,160.8,262.1z M163.3,258.1v1c0,3.1,1.2,4.6,3.5,4.6
				c2.2,0,3.3-1.5,3.3-4.5v-1.2H163.3z"/>
			<path class="st31" d="M156.9,284.5v-9.2l-5.2-2.4v-3.5l22.7,10.6l-22.7,10.2v-3.5L156.9,284.5z M160,283.2l7.3-3.2l-7.3-3.3
				V283.2z"/>
			<path class="st31" d="M172,307.8h-3.8c1.6-1.9,2.3-3.8,2.3-5.8c0-2.2-0.8-4.1-2.4-5.6c-1.6-1.5-3.5-2.3-5.8-2.3
				c-2.2,0-4.1,0.8-5.7,2.3c-1.5,1.5-2.3,3.4-2.3,5.6c0,1.1,0.2,2.1,0.6,2.9c0.2,0.4,0.4,0.9,0.7,1.4c0.3,0.5,0.7,1,1.1,1.5h-3.9
				c-1-1.8-1.6-3.8-1.6-5.8c0-3.1,1.1-5.7,3.2-7.8c2.2-2.2,4.7-3.2,7.8-3.2c2.7,0,5.2,0.9,7.3,2.7c2.6,2.2,3.9,5.1,3.9,8.6
				C173.5,304.1,173,306,172,307.8z"/>
			<path class="st31" d="M173.1,341.4h-21.4v-3.2h21.4V341.4z"/>
			<path class="st31" d="M173.1,347.6l-14.8,5.9l14.8,6v3.5l-23-9.6l23-9.4V347.6z"/>
			<path class="st31" d="M170.1,377.5v-8.6H165v8.3h-3v-8.3h-7.2v8.6h-3v-11.8h21.4v11.8H170.1z"/>
			<path class="st29" d="M41.6,220.2v-21.4h4.5c2.2,0,3.9,0.2,5.1,0.6c1.3,0.4,2.6,1.1,3.6,2.1c2.2,2,3.3,4.7,3.3,7.9
				c0,3.3-1.2,5.9-3.5,8c-1.2,1-2.4,1.7-3.6,2.1c-1.2,0.4-2.9,0.6-5,0.6H41.6z M44.8,217.2h1.5c1.5,0,2.7-0.2,3.6-0.5
				c1-0.3,1.8-0.8,2.6-1.5c1.6-1.5,2.4-3.3,2.4-5.7c0-2.3-0.8-4.2-2.4-5.7c-1.4-1.3-3.5-2-6.2-2h-1.5V217.2z"/>
			<path class="st32" d="M74,201.9h-8.6v5.1h8.3v3h-8.3v7.2H74v3H62.2v-21.4H74V201.9z"/>
			<path class="st32" d="M90.3,202l-2.6,1.6c-0.5-0.8-1-1.4-1.4-1.7c-0.5-0.3-1.1-0.4-1.8-0.4c-0.9,0-1.6,0.3-2.2,0.8
				c-0.6,0.5-0.9,1.1-0.9,1.9c0,1,0.8,1.9,2.3,2.5l2.1,0.9c1.7,0.7,3,1.6,3.8,2.6c0.8,1,1.2,2.3,1.2,3.7c0,2-0.7,3.6-2,4.9
				c-1.3,1.3-3,1.9-4.9,1.9c-1.9,0-3.4-0.5-4.6-1.6c-1.2-1.1-1.9-2.6-2.2-4.6l3.3-0.7c0.1,1.3,0.4,2.1,0.8,2.6
				c0.7,0.9,1.6,1.4,2.9,1.4c1,0,1.8-0.3,2.5-1c0.7-0.7,1-1.5,1-2.6c0-0.4-0.1-0.8-0.2-1.1c-0.1-0.3-0.3-0.7-0.5-1
				c-0.2-0.3-0.6-0.6-0.9-0.8c-0.4-0.3-0.8-0.5-1.4-0.7l-2.1-0.9c-2.9-1.2-4.4-3-4.4-5.4c0-1.6,0.6-3,1.8-4c1.2-1.1,2.8-1.6,4.6-1.6
				C87,198.4,88.9,199.6,90.3,202z"/>
			<path class="st32" d="M98,198.8v21.4h-3.2v-21.4H98z"/>
			<path class="st32" d="M114.1,209.1h8.8v0.7c0,1.6-0.2,3-0.6,4.3c-0.4,1.1-1,2.2-1.9,3.2c-2,2.2-4.5,3.4-7.6,3.4
				c-3,0-5.6-1.1-7.7-3.2c-2.1-2.2-3.2-4.8-3.2-7.8c0-3.1,1.1-5.7,3.3-7.9c2.2-2.2,4.8-3.3,7.9-3.3c1.7,0,3.2,0.3,4.7,1
				c1.4,0.7,2.7,1.8,4.1,3.3l-2.3,2.2c-1.8-2.3-3.9-3.5-6.4-3.5c-2.3,0-4.2,0.8-5.7,2.3c-1.5,1.5-2.3,3.5-2.3,5.8
				c0,2.4,0.9,4.3,2.6,5.9c1.6,1.4,3.3,2.1,5.2,2.1c1.6,0,3-0.5,4.3-1.6c1.3-1.1,2-2.4,2.1-3.9h-5.3V209.1z"/>
			<path class="st32" d="M127,220.2v-22.9l15.6,16.3v-14.9h3.2v22.7l-15.6-16.3v15H127z"/>
			<path class="st32" d="M189.5,209.1h8.8v0.7c0,1.6-0.2,3-0.6,4.3c-0.4,1.1-1,2.2-1.9,3.2c-2,2.2-4.5,3.4-7.6,3.4
				c-3,0-5.6-1.1-7.7-3.2c-2.1-2.2-3.2-4.8-3.2-7.8c0-3.1,1.1-5.7,3.3-7.9c2.2-2.2,4.8-3.3,7.9-3.3c1.7,0,3.2,0.3,4.7,1
				c1.4,0.7,2.7,1.8,4.1,3.3l-2.3,2.2c-1.8-2.3-3.9-3.5-6.4-3.5c-2.3,0-4.2,0.8-5.7,2.3c-1.5,1.5-2.3,3.5-2.3,5.8
				c0,2.4,0.9,4.3,2.6,5.9c1.6,1.4,3.3,2.1,5.2,2.1c1.6,0,3-0.5,4.3-1.6c1.3-1.1,2-2.4,2.1-3.9h-5.3V209.1z"/>
			<path class="st29" d="M121.1,315.6l-2.6,1.6c-0.5-0.8-1-1.4-1.4-1.7c-0.5-0.3-1.1-0.4-1.8-0.4c-0.9,0-1.6,0.3-2.2,0.8
				c-0.6,0.5-0.9,1.1-0.9,1.9c0,1,0.8,1.9,2.3,2.5l2.1,0.9c1.7,0.7,3,1.6,3.8,2.6c0.8,1,1.2,2.3,1.2,3.7c0,2-0.7,3.6-2,4.9
				c-1.3,1.3-3,1.9-4.9,1.9c-1.9,0-3.4-0.6-4.6-1.6c-1.2-1.1-1.9-2.6-2.2-4.6l3.3-0.7c0.1,1.3,0.4,2.1,0.8,2.6
				c0.7,0.9,1.6,1.4,2.9,1.4c1,0,1.8-0.3,2.5-1c0.7-0.7,1-1.5,1-2.6c0-0.4-0.1-0.8-0.2-1.1c-0.1-0.3-0.3-0.7-0.5-1
				c-0.2-0.3-0.6-0.6-0.9-0.8c-0.4-0.3-0.8-0.5-1.4-0.7l-2.1-0.9c-2.9-1.2-4.4-3-4.4-5.4c0-1.6,0.6-3,1.8-4c1.2-1.1,2.8-1.6,4.6-1.6
				C117.7,312,119.7,313.2,121.1,315.6z"/>
			<path class="st32" d="M129.6,324.6l-7-12.2h3.7l4.9,8.5l4.9-8.5h3.7l-7,12.2v9.2h-3.2V324.6z"/>
			<path class="st32" d="M153.8,315.6l-2.6,1.6c-0.5-0.8-1-1.4-1.4-1.7c-0.5-0.3-1.1-0.4-1.8-0.4c-0.9,0-1.6,0.3-2.2,0.8
				c-0.6,0.5-0.9,1.1-0.9,1.9c0,1,0.8,1.9,2.3,2.5l2.1,0.9c1.7,0.7,3,1.6,3.8,2.6c0.8,1,1.2,2.3,1.2,3.7c0,2-0.7,3.6-2,4.9
				c-1.3,1.3-3,1.9-4.9,1.9c-1.9,0-3.4-0.6-4.6-1.6c-1.2-1.1-1.9-2.6-2.2-4.6l3.3-0.7c0.1,1.3,0.4,2.1,0.8,2.6
				c0.7,0.9,1.6,1.4,2.9,1.4c1,0,1.8-0.3,2.5-1s1-1.5,1-2.6c0-0.4-0.1-0.8-0.2-1.1c-0.1-0.3-0.3-0.7-0.5-1c-0.2-0.3-0.6-0.6-0.9-0.8
				c-0.4-0.3-0.8-0.5-1.4-0.7l-2.1-0.9c-2.9-1.2-4.4-3-4.4-5.4c0-1.6,0.6-3,1.8-4c1.2-1.1,2.8-1.6,4.6-1.6
				C150.5,312,152.4,313.2,153.8,315.6z"/>
			<path class="st32" d="M164.5,315.5v18.4h-3.2v-18.4h-4.9v-3h13.1v3H164.5z"/>
			<path class="st32" d="M184.1,315.5h-8.6v5.1h8.3v3h-8.3v7.2h8.6v3h-11.8v-21.4h11.8V315.5z"/>
			<path class="st32" d="M187.6,333.9l4.5-23l7.3,16.6l7.6-16.6l4,23h-3.3l-2.1-12.9l-6.3,13.9l-6.2-13.9l-2.3,12.9H187.6z"/>
			<path class="st32" d="M227.8,315.6l-2.6,1.6c-0.5-0.8-1-1.4-1.4-1.7c-0.5-0.3-1.1-0.4-1.8-0.4c-0.9,0-1.6,0.3-2.2,0.8
				c-0.6,0.5-0.9,1.1-0.9,1.9c0,1,0.8,1.9,2.3,2.5l2.1,0.9c1.7,0.7,3,1.6,3.8,2.6c0.8,1,1.2,2.3,1.2,3.7c0,2-0.7,3.6-2,4.9
				c-1.3,1.3-3,1.9-4.9,1.9c-1.9,0-3.4-0.6-4.6-1.6c-1.2-1.1-1.9-2.6-2.2-4.6l3.3-0.7c0.1,1.3,0.4,2.1,0.8,2.6
				c0.7,0.9,1.6,1.4,2.9,1.4c1,0,1.8-0.3,2.5-1s1-1.5,1-2.6c0-0.4-0.1-0.8-0.2-1.1c-0.1-0.3-0.3-0.7-0.5-1c-0.2-0.3-0.6-0.6-0.9-0.8
				c-0.4-0.3-0.8-0.5-1.4-0.7l-2.1-0.9c-2.9-1.2-4.4-3-4.4-5.4c0-1.6,0.6-3,1.8-4c1.2-1.1,2.8-1.6,4.6-1.6
				C224.4,312,226.4,313.2,227.8,315.6z"/>
		</g>
	</g>
	<g>
		<circle class="st33" cx="53.8" cy="37.6" r="10.7"/>
		<circle class="st34" cx="586.6" cy="260.6" r="10.7"/>
		<circle class="st35" cx="115.3" cy="75.6" r="25.9"/>
		<circle class="st36" cx="74.1" cy="127" r="25.9"/>
		<circle class="st37" cx="123.6" cy="149.3" r="13.9"/>
		<circle class="st38" cx="445" cy="165.2" r="13.9"/>
		<circle class="st39" cx="483.5" cy="203.8" r="9.5"/>
		<circle class="st40" cx="193.2" cy="207.4" r="63.2"/>
		<circle class="st41" cx="377.3" cy="352.3" r="43.6"/>
		<circle class="st42" cx="218.7" cy="70.4" r="63.2"/>
		<circle class="st43" cx="143.5" cy="360.5" r="90.4"/>
		<circle class="st44" cx="316.7" cy="564" r="70.1"/>
		<circle class="st45" cx="309.7" cy="137.4" r="44.2"/>
		<circle class="st46" cx="337.3" cy="245.7" r="57.5"/>
		<circle class="st47" cx="455.5" cy="313.2" r="25.9"/>
		<circle class="st48" cx="413.3" cy="361.6" r="27.7"/>
		<circle class="st35" cx="18.8" cy="423.9" r="13.9"/>
		<circle class="st35" cx="278.9" cy="302" r="7.7"/>
		<circle class="st35" cx="219.1" cy="462.3" r="25.9"/>
		<circle class="st49" cx="286.2" cy="506.3" r="11.6"/>
		<circle class="st50" cx="186.9" cy="502.8" r="17"/>
		<line class="st51" x1="286" y1="297.6" x2="300.2" y2="290.6"/>
		<line class="st51" x1="229.4" y1="324.6" x2="270.9" y2="304.7"/>
		<line class="st51" x1="395.3" y1="246.5" x2="474.2" y2="208.3"/>
		<line class="st52" x1="450.3" y1="286.9" x2="483.1" y2="214"/>
		<line class="st52" x1="427.4" y1="336.8" x2="432.2" y2="326.3"/>
		<line class="st53" x1="352" y1="502.4" x2="404" y2="388.6"/>
		<path class="st54" d="M390.8,463"/>
		<path class="st54" d="M411.1,441.9"/>
		<circle class="st55" cx="418" cy="448.3" r="13.9"/>
		<path class="st54" d="M463.8,387.1"/>
		<line class="st56" x1="493.1" y1="207.6" x2="576.3" y2="255.3"/>
		<path class="st54" d="M410.5,447.3"/>
		<line class="st51" x1="192.5" y1="460.4" x2="169.8" y2="447.2"/>
		<line class="st51" x1="274.1" y1="507.6" x2="233.9" y2="484.3"/>
		<line class="st57" x1="108.9" y1="150.3" x2="95.2" y2="143.2"/>
		<line class="st57" x1="281" y1="230.2" x2="256.3" y2="218.4"/>
		<line class="st57" x1="432.1" y1="300.5" x2="385.5" y2="278.2"/>
		<path class="st54" d="M413.3,389.3"/>
		<line class="st58" x1="100.6" y1="97.8" x2="91.3" y2="106.7"/>
		<line class="st59" x1="93.6" y1="60" x2="63.7" y2="43.2"/>
		<line class="st52" x1="369" y1="395.7" x2="409.1" y2="436.6"/>
		<line class="st52" x1="284.1" y1="308.8" x2="333.7" y2="359.5"/>
		<path class="st60" d="M283.9,308.6"/>
		<path class="st60" d="M272.4,296.9"/>
		<line class="st52" x1="233.3" y1="257" x2="272.3" y2="296.6"/>
		<line class="st51" x1="196.5" y1="488" x2="202" y2="482.5"/>
		<line class="st61" x1="31.8" y1="419.8" x2="64.1" y2="403.9"/>
	</g>
</g>
<g id="Layer_3">
</g>
</svg>
