<?xml version="1.0" encoding="utf-8"?>
<!-- Generator: Adobe Illustrator 16.0.0, SVG Export Plug-In . SVG Version: 6.00 Build 0)  -->
<!DOCTYPE svg PUBLIC "-//W3C//DTD SVG 1.1//EN" "http://www.w3.org/Graphics/SVG/1.1/DTD/svg11.dtd">
<svg version="1.1" id="Layer_1" xmlns="http://www.w3.org/2000/svg" xmlns:xlink="http://www.w3.org/1999/xlink" x="0px" y="0px"
	 width="600px" height="140px" viewBox="0 0 600 140" enable-background="new 0 0 600 140" xml:space="preserve">
<path fill="#6F6F6F" d="M324.156,103.866l2.151,0.914c0.237,0.062,0.36,0.203,0.387,0.468c0,0.237-0.387,0.412-1.151,0.562
	c-0.265,0.327-0.502,0.625-0.771,0.889v0.027c0.888,0.536,1.332,1.063,1.332,1.626c0,0.291-0.062,0.503-0.21,0.651
	c-0.114,0.176-0.352,0.264-0.703,0.291c-0.335,0-0.653-0.238-1.035-0.704c-0.269-0.3-0.471-0.536-0.682-0.712
	c-0.291,0.201-0.65,0.438-1.09,0.712c-0.65,0.353-1.565,0.677-2.745,1.029l-0.211-0.563c0.501-0.236,0.889-0.44,1.183-0.651
	c0.497-0.289,0.945-0.643,1.354-1.09c0.118-0.142,0.242-0.29,0.393-0.475c-0.656-0.591-1.505-1.232-2.604-1.944l0.477-0.353
	c1.3,0.528,2.242,0.942,2.894,1.267C323.448,105.335,323.77,104.692,324.156,103.866 M324.039,109.741l2.153,0.915
	c0.239,0.053,0.353,0.204,0.384,0.467c0,0.237-0.384,0.413-1.157,0.59c-0.29,0.263-0.496,0.474-0.678,0.65
	c0.115,0.062,0.247,0.122,0.388,0.237c0.945,0.502,1.416,1.003,1.447,1.531c0,0.325-0.058,0.562-0.234,0.712
	c-0.118,0.202-0.386,0.3-0.799,0.325c-0.352,0-0.74-0.264-1.152-0.826c-0.352-0.353-0.678-0.651-1.004-0.915
	c-0.413,0.237-0.886,0.5-1.474,0.791c-0.739,0.3-1.747,0.598-3.074,0.95l-0.238-0.59c0.59-0.236,1.039-0.413,1.392-0.589
	c0.562-0.299,1.063-0.625,1.538-1.037c0.204-0.176,0.383-0.353,0.59-0.528c-0.65-0.501-1.417-1.003-2.366-1.539l0.477-0.325
	c1.121,0.36,2.003,0.685,2.656,0.976C323.237,111.123,323.619,110.533,324.039,109.741 M317.01,103.514l1.892,1.795
	c0.175,0.177,0.263,0.324,0.289,0.501c0,0.3-0.114,0.439-0.352,0.475l-1.152-0.352c-1.417,0.29-2.683,0.502-3.861,0.642l0.141,2.13
	h1.653l1.276-1.267l1.68,1.267c0.177,0.15,0.264,0.299,0.264,0.475c0,0.202-0.146,0.29-0.471,0.325h-4.336l0.175,2.656h1.742
	l1.268-1.274l1.711,1.274c0.179,0.15,0.263,0.291,0.263,0.467c0,0.237-0.14,0.36-0.466,0.36h-4.46l0.181,2.622h16.089l0.233-2.507
	h-0.264c-1.065,0-2.131,0.061-3.246,0.211l-0.563-1.479c1.267,0.291,2.538,0.442,3.81,0.442h0.351l0.238-2.657h-0.388
	c-1.063,0-2.119,0.061-3.22,0.236l-0.554-1.504c1.267,0.291,2.507,0.44,3.773,0.468h0.476l0.239-2.535h-0.715
	c-1.063,0-2.119,0.063-3.22,0.237l-0.554-1.503c1.267,0.29,2.507,0.44,3.773,0.467h0.511l-0.035-0.115l1.27-1.267l1.59,1.441
	c0.299,0.239,0.447,0.44,0.474,0.627c0,0.201-0.087,0.35-0.29,0.438l-0.746,0.475l-0.766,8.524h0.448l1.354-1.152l1.944,1.477
	c0.238,0.123,0.361,0.326,0.361,0.626c0,0.175-0.15,0.324-0.501,0.466l-0.739,0.211c-0.735,0.767-1.743,1.592-3.009,2.533
	l-0.682-0.352c0.62-1.091,1.063-2.067,1.328-2.973h-21.64c-0.03,0.642-0.118,1.23-0.269,1.759c-0.175,0.659-0.439,1.126-0.795,1.478
	c-0.26,0.3-0.559,0.447-0.884,0.447c-0.827,0-1.235-0.42-1.269-1.266c0-0.246,0.151-0.536,0.502-0.914
	c0.353-0.361,0.678-0.802,1.003-1.39c0.352-0.678,0.647-1.514,0.915-2.543l0.678,0.238c0.062,0.466,0.088,0.914,0.118,1.354h0.885
	l-0.527-8.647c0-0.713-0.15-1.53-0.476-2.507l2.215,1.205C314.798,105.071,315.889,104.367,317.01,103.514 M328.643,117.703
	l1.976,1.979c0.298,0.239,0.438,0.447,0.438,0.687c0,0.29-0.175,0.44-0.522,0.44h-0.982c-1.705,0.764-3.328,1.354-4.898,1.829
	c0.035,0.062,0.035,0.149,0.062,0.263c0,0.15-0.177,0.326-0.559,0.564v0.352h7.264l1.713-1.979l2.42,1.777
	c0.232,0.202,0.352,0.412,0.352,0.649c0,0.291-0.178,0.441-0.563,0.467h-11.185v3.017c0,1.004-0.506,1.795-1.509,2.42
	c-0.827,0.439-1.592,0.644-2.304,0.679c0-0.74-0.088-1.269-0.321-1.655c-0.177-0.439-1.121-0.888-2.899-1.329l0.094-0.826
	l3.931,0.915c0.383,0,0.555-0.176,0.587-0.562v-2.657h-8.208c-1.064,0-2.125,0.062-3.22,0.238l-0.559-1.504
	c1.271,0.235,2.511,0.352,3.778,0.352h8.208c0-0.705-0.032-1.505-0.116-2.418l1.975,0.677c1.18-0.677,2.249-1.443,3.186-2.306
	h-8.854c-1.06,0-2.12,0.062-3.246,0.238l-0.562-1.505c1.271,0.299,2.542,0.44,3.809,0.476h9.446L328.643,117.703z"/>
<path fill="#6F6F6F" d="M288.164,103.979l3.305,0.466c0.473,0.071,0.711,0.247,0.711,0.563c0,0.326-0.413,0.624-1.27,0.941
	c0,2.428-0.089,4.494-0.324,6.236h8.058l1.86-2.094l2.567,1.857c0.268,0.236,0.382,0.449,0.413,0.677c0,0.3-0.173,0.44-0.563,0.476
	h-11.776c1.005,2.479,2.037,4.521,3.129,6.166c1.241,1.953,2.775,3.632,4.636,5.111c1.711,1.415,3.537,2.479,5.489,3.245
	l-0.321,0.801c-0.475,0-0.889,0.052-1.24,0.175c-0.391,0.053-0.89,0.563-1.538,1.558c-1.741-0.994-3.245-2.27-4.576-3.862
	c-1.594-1.768-2.895-3.747-3.926-5.989c-0.915-1.829-1.712-4.108-2.393-6.826c-0.06,0.247-0.116,0.536-0.207,0.924
	c-0.352,2.032-0.916,3.861-1.739,5.488c-0.71,1.566-1.566,2.947-2.63,4.161c-1.179,1.39-2.507,2.604-4.044,3.693
	c-1.329,0.969-3.009,2.007-5.049,3.099l-0.59-0.688c2.188-1.407,3.842-2.621,4.963-3.624c1.59-1.452,2.923-3.008,4.04-4.724
	c1.186-1.882,2.008-3.923,2.541-6.166c0.18-0.828,0.325-1.654,0.446-2.542h-7.589c-1.062,0-2.126,0.061-3.248,0.236l-0.563-1.505
	c1.271,0.239,2.539,0.353,3.811,0.353h7.706c0.116-1.24,0.175-2.893,0.235-4.96C288.489,106.461,288.404,105.396,288.164,103.979"/>
<path fill="#6F6F6F" d="M267.616,105.723l2.599,1.863c0.24,0.203,0.352,0.414,0.383,0.679c0,0.298-0.176,0.439-0.559,0.439h-10.156
	v18.455h8.089l1.829-2.067l2.597,1.864c0.267,0.203,0.383,0.405,0.416,0.669c0,0.3-0.18,0.448-0.591,0.448h-22.82
	c-1.243,0-2.451,0.115-3.688,0.353l-0.709-1.706c1.474,0.291,2.925,0.439,4.397,0.439h7.94v-18.455h-5.875
	c-1.21,0-2.416,0.123-3.691,0.36l-0.676-1.75c1.476,0.307,2.923,0.447,4.367,0.475h14.288L267.616,105.723z"/>
<path fill="#6F6F6F" d="M220.284,104.658l2.1,1.626c0.203,0.177,0.293,0.362,0.323,0.59c0,0.299-0.18,0.44-0.562,0.44h-3.572v6.94
	h0.207l1.504-1.619l2.01,1.53c0.173,0.186,0.265,0.361,0.292,0.537c0,0.29-0.149,0.44-0.441,0.466h-3.572v6.465
	c1.419-0.289,2.773-0.677,4.134-1.152l0.118,0.687c-2.334,1.47-5.017,2.896-8.063,4.275l-0.232,1.003c0,0.237-0.117,0.36-0.356,0.36
	c-0.234,0-0.409-0.149-0.533-0.511l-1.178-2.947c1.302-0.264,2.54-0.622,3.778-1.062v-7.117c-0.973,0-1.951,0.063-2.983,0.237
	l-0.588-1.504c1.211,0.203,2.39,0.299,3.571,0.325v-6.913c-1.062,0-2.123,0.07-3.215,0.247l-0.563-1.505
	c1.269,0.228,2.512,0.343,3.778,0.343h2.418L220.284,104.658z M231.827,111.245h4.251v-5.083h-4.251V111.245z M225.36,111.245h4.162
	v-5.083h-4.162V111.245z M231.827,117.008h4.251v-4.97h-4.251V117.008z M225.36,117.008h4.162v-4.97h-4.162V117.008z
	 M222.94,104.217l2.187,1.153h10.864l1.237-1.153l1.743,1.416c0.296,0.177,0.446,0.361,0.472,0.529c0,0.186-0.12,0.299-0.354,0.387
	l-0.798,0.325v9.095l0.207,2.419c0,0.239-0.117,0.449-0.349,0.652c-0.24,0.176-0.533,0.264-0.921,0.3
	c-0.765,0-1.149-0.185-1.149-0.6v-0.914h-4.251v4.485h2.981l1.744-1.943l2.391,1.768c0.236,0.211,0.351,0.413,0.378,0.651
	c0,0.298-0.177,0.439-0.589,0.439h-6.905v5.313h4.369l1.861-1.944l2.476,1.769c0.237,0.211,0.356,0.413,0.387,0.649
	c0,0.291-0.181,0.44-0.562,0.44h-16.736c-1.063,0-2.125,0.071-3.221,0.239l-0.559-1.505c1.271,0.237,2.51,0.352,3.78,0.352h5.905
	v-5.313h-3.013c-1.065,0-2.126,0.062-3.217,0.238l-0.59-1.504c1.264,0.235,2.536,0.351,3.807,0.351h3.013v-4.485h-4.167v0.448
	c0,0.353-0.143,0.589-0.44,0.766c-0.295,0.176-0.648,0.264-1.063,0.3c-0.474,0-0.735-0.274-0.797-0.828l0.122-2.78v-9.447
	C223.181,105.221,223.121,104.551,222.94,104.217"/>
<path fill="#6F6F6F" d="M182.103,104.579c1.415,0.642,2.51,1.205,3.305,1.678c0.709,0.477,1.059,0.942,1.059,1.417
	c0,0.828-0.409,1.241-1.265,1.269c-0.474,0-0.855-0.266-1.152-0.827c-0.532-1.03-1.357-2.006-2.536-2.975L182.103,104.579z
	 M180.359,111.598c1.388,0.624,2.45,1.152,3.218,1.628c0.71,0.466,1.062,0.914,1.062,1.354c0,0.827-0.412,1.242-1.271,1.276
	c-0.468,0-0.823-0.237-1.122-0.774c-0.526-1.003-1.324-1.971-2.445-2.921L180.359,111.598z M193.848,114.14h4.279v-4.608h-4.279
	V114.14z M193.053,122.9h5.52v-3.561h-5.52V122.9z M191.546,104.217l2.685,0.389c0.503,0.053,0.739,0.236,0.77,0.535
	c0,0.354-0.382,0.644-1.153,0.916v2.533h4.284v-2.533c0-0.272-0.033-0.836-0.119-1.725l2.686,0.388
	c0.499,0.061,0.739,0.236,0.765,0.536c0,0.352-0.382,0.651-1.152,0.906v2.428h1.508l1.596-1.829l2.299,1.679
	c0.239,0.203,0.356,0.415,0.356,0.625c0,0.291-0.177,0.439-0.563,0.467h-5.196v4.608h2.986l1.738-1.979l2.393,1.777
	c0.237,0.202,0.356,0.414,0.387,0.642c0,0.237-0.18,0.354-0.593,0.354h-7.704c0.648,0.598,1.33,1.098,2.096,1.565
	c0.823,0.536,1.71,0.976,2.656,1.328c1.005,0.413,2.217,0.738,3.662,1.037l-0.238,0.677c-0.385,0-0.708,0.027-1.001,0.115
	c-0.296,0.097-0.679,0.625-1.185,1.627c-0.855-0.352-1.77-0.888-2.802-1.652c-0.946-0.714-1.801-1.532-2.63-2.543
	c-0.473-0.493-1.003-1.205-1.59-2.154h-4.049c-0.615,1.248-1.264,2.277-2.002,3.13c-0.031,0.062-0.06,0.089-0.121,0.149l0.53,0.3
	h5.643l1.24-1.153l1.738,1.409c0.296,0.184,0.447,0.36,0.474,0.572c0,0.139-0.118,0.263-0.352,0.377l-0.827,0.3v1.829l0.233,2.444
	c0,0.238-0.117,0.45-0.353,0.625c-0.236,0.177-0.529,0.265-0.913,0.29c-0.772,0-1.153-0.176-1.153-0.589V123.7h-5.52v2.43
	c0,0.642,0.386,1.029,1.178,1.205c0.77,0.176,2.274,0.265,4.577,0.3c2.098,0,3.459-0.098,4.075-0.273
	c0.501-0.089,0.829-0.291,1.005-0.615l1.032-3.281h0.712l-0.123,2.665c0,0.316,0.15,0.616,0.506,0.881
	c0.349,0.324,0.53,0.677,0.53,1.062c0,0.414-0.181,0.704-0.59,0.915c-0.356,0.264-1.005,0.466-1.951,0.615
	c-1.152,0.125-2.832,0.177-5.075,0.213c-2.599,0-4.4-0.088-5.403-0.327c-0.857-0.087-1.538-0.387-2.037-0.889
	c-0.415-0.475-0.622-1.116-0.622-2.005v-6.904c-0.293,0.263-0.649,0.527-1.062,0.827c-1.268,0.975-2.743,1.828-4.487,2.593
	l-0.355-0.562c0.978-0.588,1.803-1.179,2.539-1.794c0.829-0.711,1.538-1.479,2.186-2.304c0.706-0.978,1.386-2.13,2.098-3.519h-4.99
	l-2.393,7.705c-0.147,0.447-0.206,0.862-0.238,1.302c0,0.589,0.122,1.303,0.384,2.155c0.355,1.037,0.537,1.705,0.537,2.094
	c0,0.65-0.149,1.188-0.506,1.628c-0.292,0.377-0.616,0.554-1.002,0.588c-0.416,0-0.739-0.14-1-0.475
	c-0.297-0.353-0.447-0.888-0.474-1.618c0-0.186,0-0.512,0.058-1.004c0.085-0.475,0.119-0.861,0.149-1.178
	c0-0.713-0.149-1.276-0.447-1.75c-0.233-0.414-0.796-0.705-1.737-0.915v-0.792c0.526,0.228,0.912,0.351,1.148,0.351
	c0.356,0,0.68-0.324,0.972-0.976l5.255-11.955l0.713,0.352l-1.152,3.695h4.602v-4.608c-1.004,0-2.004,0.062-3.008,0.21l-0.562-1.477
	c1.178,0.175,2.364,0.263,3.57,0.325v-2.657C191.664,105.66,191.636,105.105,191.546,104.217"/>
<path fill="#6F6F6F" d="M168.778,103.514l2.186,1.592c0.149,0.089,0.207,0.291,0.233,0.617c0,0.21-0.116,0.298-0.352,0.325
	l-1.036-0.115c-2.035,0.299-4.31,0.563-6.816,0.828v2.98h8.444l1.827-1.952l2.48,1.777c0.267,0.201,0.385,0.413,0.416,0.643
	c0,0.299-0.181,0.447-0.594,0.474h-11.332c1.005,0.827,2.003,1.539,3.066,2.129c1.244,0.712,2.542,1.303,3.896,1.768
	c1.478,0.537,3.22,0.978,5.287,1.39l-0.206,0.705c-0.414,0-0.77,0.035-1.062,0.096c-0.297,0.114-0.713,0.678-1.272,1.733
	c-1.328-0.44-2.747-1.117-4.31-2.066c-1.476-0.845-2.832-1.884-4.134-3.159c-0.706-0.615-1.504-1.469-2.417-2.595h-0.089v6.228
	c0,0.361-0.177,0.652-0.534,0.889c-0.352,0.177-0.708,0.264-1.062,0.264c-0.591,0-0.885-0.264-0.941-0.826l0.233-3.097v-2.306
	c-0.708,1.04-1.445,1.857-2.243,2.483c-1.355,1.123-3.04,2.216-5.08,3.333c-1.564,0.801-3.275,1.513-5.135,2.128l-0.324-0.562
	c1.711-0.828,3.215-1.681,4.544-2.63c1.418-0.941,2.659-1.918,3.751-2.974c0.975-0.95,1.802-1.926,2.479-2.93h-6.64
	c-1.062,0-2.126,0.062-3.218,0.211l-0.592-1.477c1.297,0.202,2.568,0.29,3.811,0.324h8.647v-2.771
	c-2.184,0.175-5.315,0.317-9.445,0.467l-0.354-0.563c4.012-0.378,7.143-0.765,9.386-1.151
	C163.526,105.194,166.355,104.455,168.778,103.514 M156.088,123.587h11.659v-3.809h-11.659V123.587z M156.088,128.073h11.659v-3.686
	h-11.659V128.073z M168.985,117.588l1.921,1.601c0.352,0.204,0.532,0.379,0.532,0.59c0,0.176-0.119,0.325-0.39,0.475l-0.881,0.353
	v6.43l0.323,2.658c0,0.298-0.147,0.536-0.439,0.711c-0.24,0.202-0.592,0.29-1.065,0.325c-0.827,0-1.243-0.21-1.243-0.677V128.9
	h-11.654v0.916c0,0.351-0.15,0.588-0.503,0.729c-0.327,0.185-0.682,0.273-1.123,0.301c-0.473,0-0.738-0.266-0.798-0.793l0.116-3.018
	v-7.133c0-1.127-0.057-1.84-0.233-2.19l2.541,1.267h11.421L168.985,117.588z"/>
<polygon fill="#8F1329" points="141.039,94.867 141.039,93.081 594.211,93.108 594.202,94.895 "/>
<path fill="#6F6F6F" d="M570.241,75.654l6.029-7.412c0.689-0.862,1.297-1.641,2.618-1.667v-0.748c-0.881,0-1.733,0.062-2.587,0.062
	c-1.196,0-2.427-0.032-3.634-0.062v0.748c1.61,0,2.243,0,2.243,0.836c0,0.655-0.848,1.579-1.231,2.068l-4.134,5.139l-4.416-5.659
	c-0.607-0.774-1.045-1.434-1.045-1.781c0-0.603,1.265-0.603,1.763-0.603v-0.748c-1.289,0-2.557,0.062-3.848,0.062
	c-1.452,0-3.792-0.032-4.391-0.062v0.748c1.864,0.146,2.019,0.088,2.938,1.267l6.596,8.27v6.941c0,2.014-1.203,2.04-2.872,2.067
	v0.748c1.482-0.027,2.934-0.054,4.354-0.054c1.457,0,2.908,0.026,4.487,0.054v-0.748c-1.676-0.027-2.872-0.054-2.872-2.067V75.654z
	 M556.352,65.027h-0.665c-0.127,0.545-0.918,0.8-2.053,0.8h-14.335c-0.787,0-1.645-0.026-1.992-0.8h-0.629l-0.347,4.561h0.817
	c0.537-1.865,0.67-2.578,3.506-2.578h4.135v16.043c0,2.014-1.201,2.04-2.872,2.067v0.748c1.578-0.027,3.061-0.054,4.578-0.054
	c1.394,0,2.753,0.054,4.262,0.054v-0.748c-1.672-0.027-2.868-0.054-2.868-2.067V67.011h4.799c2.521,0,2.429,1.029,2.521,2.578h0.858
	L556.352,65.027z M529.039,83.054c0,2.014-1.205,2.04-2.873,2.067v0.748c1.579-0.027,3.062-0.054,4.579-0.054
	c1.39,0,2.75,0.054,4.263,0.054v-0.748c-1.673-0.027-2.873-0.054-2.873-2.067V68.642c0-2.005,1.2-2.041,2.873-2.067v-0.748
	c-1.579,0.03-3.027,0.062-4.487,0.062c-1.412,0-2.871-0.032-4.354-0.062v0.748c1.668,0.026,2.873,0.062,2.873,2.067V83.054z
	 M512.211,85.323c1.486,0.634,3.185,0.977,4.833,0.977c3.721,0,7.42-2.095,7.42-5.831c0-6.6-9.724-5.13-9.724-10.476
	c0-2.093,1.386-3.672,3.786-3.672c2.274,0,3.726,1.174,4.077,3.188h0.726l-0.505-3.681c-1.267-0.171-2.556-0.427-3.857-0.427
	c-3.848,0-6.756,1.922-6.756,5.629c0,6.772,9.347,5.197,9.347,10.537c0,2.261-1.896,3.808-4.324,3.808
	c-2.625,0-4.389-2.094-4.926-4.239h-0.726L512.211,85.323z M502.938,71.084c0,2.067-1.512,4.396-5.399,4.396
	c-0.536,0-1.192-0.062-1.664-0.142v-8.416c0.564-0.088,1.096-0.172,1.892-0.172C501.489,66.751,502.938,68.586,502.938,71.084
	 M498.743,76.394c2.275,3.247,4.39,6.606,7.258,9.476c0.889-0.027,1.803-0.054,2.683-0.054c0.796,0,1.583,0.054,2.371,0.054v-0.748
	c-1.606,0-2.556-0.774-3.566-1.805c-1.355-1.381-2.873-3.676-5.745-7.494c2.464-0.659,4.486-2.468,4.486-4.91
	c0-2.042-1.328-5.085-7.291-5.085c-2.024,0-3.133,0.062-4.241,0.062c-1.545,0-3.062-0.032-4.793-0.062v0.748
	c1.671,0.026,2.871,0.062,2.871,2.067v14.561c0,1.627-1.293,2.006-2.871,1.918v0.748c1.578-0.027,3.061-0.054,4.573-0.054
	c1.397,0,2.752,0.054,4.266,0.054v-0.748c-1.68-0.027-2.868-0.054-2.868-2.067v-6.66H498.743z M476.577,66.751h3.694
	c3.157,0,4.583,0.8,5.049,3.5l0.634-0.145v-4.28c-3.062,0.062-6.062,0.062-9.096,0.062c-2.112,0-4.259,0-6.374-0.062v0.748
	c2.494,0.088,2.995,0.203,2.995,2.556v12.752c0,2.779-0.244,3.237-2.995,3.237v0.748c2.336-0.054,4.676-0.054,7.007-0.054
	c3.159,0,6.316,0.054,9.479,0.054c0.311-1.496,0.783-2.956,1.29-4.39l-0.758-0.115c-1.231,3.07-2.617,3.439-5.71,3.589h-1.965
	c-3.123,0-3.25-0.809-3.25-3.994v-4.881h3.378c2.435,0,3.438,0,3.438,2.762h0.633c0.036-0.924-0.122-2.277-0.122-3.186
	c0-1.036,0.065-2.587,0.122-3.221h-0.633c-0.088,0.66-0.088,2.476-2.647,2.476h-4.169V66.751z M457.822,86.3h1.166l5.775-13.176
	c0.07-0.146,2.216-5.11,2.4-5.427c0.44-0.686,1.043-1.122,2.119-1.122v-0.748c-0.975,0.03-1.96,0.062-2.941,0.062
	c-1.227,0-2.494-0.032-3.721-0.062v0.748c1.136,0.062,2.401-0.026,2.401,1.324c0,0.941-0.664,2.353-0.989,3.271
	c-0.655,1.871-1.54,3.703-2.296,5.567l-2.401,5.69l-4.195-9.823c-0.353-0.832-2.023-4.306-2.023-5.256
	c0-0.426,0.377-0.654,0.817-0.686c0.445-0.062,0.879-0.062,1.354-0.088v-0.748c-1.324,0-2.679,0.062-4.012,0.062
	c-1.478,0-2.96-0.032-4.445-0.062v0.748c2.085,0,2.591,0.55,3.312,2.266c0.73,1.868,1.644,3.738,2.438,5.574L457.822,86.3z
	 M439.855,83.054c0,2.014-1.2,2.04-2.871,2.067v0.748c1.578-0.027,3.061-0.054,4.578-0.054c1.385,0,2.749,0.054,4.263,0.054v-0.748
	c-1.672-0.027-2.878-0.054-2.878-2.067V68.642c0-2.005,1.206-2.041,2.878-2.067v-0.748c-1.58,0.03-3.028,0.062-4.488,0.062
	c-1.415,0-2.866-0.032-4.353-0.062v0.748c1.671,0.026,2.871,0.062,2.871,2.067V83.054z M432.727,69.535
	c0-2.814,1.038-2.96,2.965-2.96v-0.748c-1.232,0-2.437,0.062-3.664,0.062c-1.456,0-2.935-0.032-4.385-0.062v0.748
	c3.149,0.026,3.818,0.836,3.818,3.479v11.425c-2.146-2.13-5.116-4.971-7.804-7.671c-3.598-3.614-6.536-6.226-7.829-7.981
	c-0.857,0-1.741,0.062-2.59,0.062c-0.977,0-1.922-0.032-2.907-0.062v0.748c2.719,0,3.882,0.893,3.882,3.36v11.544
	c0,3.642-1.443,3.642-3.378,3.642v0.748c1.396-0.027,2.817-0.054,4.201-0.054c1.39,0,2.815,0.054,4.205,0.054v-0.748
	c-3.413,0-3.76-0.802-3.76-4.76V69.65l16.516,16.473h0.729V69.535z M411.114,62.015c-1.275,0-2.517,0.066-3.792,0.066
	c-1.582,0-3.158-0.031-4.741-0.066v0.893c3.346,0.101,3.571,0,3.571,5.599v9.735c0,2.366-0.598,6.738-6.839,6.738
	c-5.863,0-7.333-3.932-7.333-7.994V65.366c0-2.393,1.427-2.428,3.424-2.459v-0.893c-1.885,0.035-3.607,0.066-5.341,0.066
	c-1.688,0-3.412-0.031-5.185-0.066v0.893c1.993,0.031,3.422,0.066,3.422,2.459v12.47c0.109,5.808,3.83,8.552,10.041,8.552
	c6.61,0,9.808-3.493,9.808-8.146v-9.835c0-4.17-0.036-5.499,2.965-5.499V62.015z M377.196,66.923
	c-2.433-0.775-4.892-1.522-7.457-1.522c-6.18,0-11.967,4.219-11.967,10.106c0,6.456,4.68,10.793,12.068,10.793
	c2.084,0,5.651-0.775,6.976-1.523l0.729-4.187l-0.729-0.174c-0.634,3.015-3.228,4.959-6.348,4.959c-4.864,0-9.408-4.16-9.408-9.957
	c0-6.885,5.274-9.097,8.903-9.097c3.544,0,6.158,1.346,6.756,4.709h0.791L377.196,66.923z M350.019,83.054
	c0,2.014-1.201,2.04-2.873,2.067v0.748c1.58-0.027,3.061-0.054,4.579-0.054c1.394,0,2.754,0.054,4.266,0.054v-0.748
	c-1.675-0.027-2.872-0.054-2.872-2.067V68.642c0-2.005,1.197-2.041,2.872-2.067v-0.748c-1.578,0.03-3.029,0.062-4.485,0.062
	c-1.42,0-2.873-0.032-4.359-0.062v0.748c1.672,0.026,2.873,0.062,2.873,2.067V83.054z M342.889,69.535
	c0-2.814,1.038-2.96,2.969-2.96v-0.748c-1.235,0-2.433,0.062-3.663,0.062c-1.453,0-2.936-0.032-4.392-0.062v0.748
	c3.16,0.026,3.828,0.836,3.828,3.479v11.425c-2.155-2.13-5.12-4.971-7.807-7.671c-3.602-3.614-6.535-6.226-7.829-7.981
	c-0.849,0-1.733,0.062-2.592,0.062c-0.975,0-1.92-0.032-2.901-0.062v0.748c2.717,0,3.88,0.893,3.88,3.36v11.544
	c0,3.642-1.448,3.642-3.379,3.642v0.748c1.391-0.027,2.815-0.054,4.205-0.054s2.812,0.054,4.204,0.054v-0.748
	c-3.417,0-3.765-0.802-3.765-4.76V69.65l16.51,16.473h0.731V69.535z M300.476,74.909v-6.267c0-2.005,1.2-2.041,2.873-2.067v-0.748
	c-1.579,0.03-3.029,0.062-4.484,0.062c-1.419,0-2.871-0.032-4.359-0.062v0.748c1.673,0.026,2.876,0.062,2.876,2.067v14.412
	c0,2.014-1.203,2.04-2.876,2.067v0.748c1.579-0.027,3.066-0.054,4.579-0.054c1.392,0,2.75,0.054,4.264,0.054v-0.748
	c-1.673-0.027-2.873-0.054-2.873-2.067v-6.976h12.755v6.976c0,2.014-1.201,2.04-2.873,2.067v0.748
	c1.646-0.027,3.098-0.054,4.58-0.054c1.42,0,2.845,0.026,4.265,0.054v-0.748c-1.673-0.027-2.872-0.054-2.872-2.067V68.642
	c0-2.005,1.199-2.041,2.872-2.067v-0.748c-1.42,0-2.813,0.062-4.173,0.062c-1.514,0-3-0.032-4.672-0.062v0.748
	c1.672,0.026,2.873,0.062,2.873,2.067v6.267H300.476z M292.14,66.923c-2.432-0.775-4.896-1.522-7.453-1.522
	c-6.188,0-11.971,4.219-11.971,10.106c0,6.456,4.675,10.793,12.066,10.793c2.085,0,5.652-0.775,6.976-1.523l0.729-4.187
	l-0.729-0.174c-0.629,3.015-3.219,4.959-6.344,4.959c-4.865,0-9.411-4.16-9.411-9.957c0-6.885,5.275-9.097,8.905-9.097
	c3.536,0,6.157,1.346,6.756,4.709h0.794L292.14,66.923z M259.273,66.751h3.696c3.158,0,4.58,0.8,5.049,3.5l0.635-0.145v-4.28
	c-3.062,0.062-6.064,0.062-9.093,0.062c-2.115,0-4.264,0-6.382-0.062v0.748c2.495,0.088,2.999,0.203,2.999,2.556v12.752
	c0,2.779-0.253,3.237-2.999,3.237v0.748c2.337-0.054,4.676-0.054,7.013-0.054c3.158,0,6.313,0.054,9.472,0.054
	c0.315-1.496,0.788-2.956,1.297-4.39l-0.76-0.115c-1.231,3.07-2.622,3.439-5.715,3.589h-1.956c-3.126,0-3.255-0.809-3.255-3.994
	v-4.881h3.382c2.427,0,3.44,0,3.44,2.762h0.632c0.03-0.924-0.128-2.277-0.128-3.186c0-1.036,0.065-2.587,0.128-3.221h-0.632
	c-0.094,0.66-0.094,2.476-2.651,2.476h-4.171V66.751z M251.665,65.027h-0.661c-0.126,0.545-0.916,0.8-2.055,0.8h-14.335
	c-0.788,0-1.638-0.026-1.99-0.8h-0.632l-0.345,4.561h0.818c0.536-1.865,0.666-2.578,3.51-2.578h4.133v16.043
	c0,2.014-1.198,2.04-2.874,2.067v0.748c1.582-0.027,3.068-0.054,4.582-0.054c1.388,0,2.747,0.054,4.258,0.054v-0.748
	c-1.668-0.027-2.871-0.054-2.871-2.067V67.011h4.799c2.527,0,2.433,1.029,2.527,2.578h0.852L251.665,65.027z M221.729,75.654
	l6.034-7.412c0.696-0.862,1.293-1.641,2.617-1.667v-0.748c-0.88,0-1.732,0.062-2.583,0.062c-1.203,0-2.432-0.032-3.635-0.062v0.748
	c1.613,0,2.243,0,2.243,0.836c0,0.655-0.851,1.579-1.228,2.068l-4.139,5.139l-4.425-5.659c-0.598-0.774-1.041-1.434-1.041-1.781
	c0-0.603,1.268-0.603,1.771-0.603v-0.748c-1.296,0-2.557,0.062-3.854,0.062c-1.45,0-3.787-0.032-4.387-0.062v0.748
	c1.86,0.146,2.022,0.088,2.937,1.267l6.598,8.27v6.941c0,2.014-1.198,2.04-2.874,2.067v0.748c1.487-0.027,2.938-0.054,4.361-0.054
	c1.449,0,2.904,0.026,4.481,0.054v-0.748c-1.672-0.027-2.875-0.054-2.875-2.067V75.654z M212.361,81.479l-0.693-0.115
	c-0.979,2.78-2.243,3.589-5.905,3.589c-4.486,0-4.99-0.896-4.99-3.018V68.642c0-2.005,1.196-2.041,2.873-2.067v-0.748
	c-1.577,0.03-3.03,0.062-4.486,0.062c-1.418,0-2.868-0.032-4.354-0.062v0.748c1.677,0.026,2.875,0.062,2.875,2.067v14.561
	c0,1.627-1.297,2.006-2.875,1.918v0.748c2.779-0.054,5.557-0.054,8.368-0.054c2.686,0,5.337,0,8.022,0.054L212.361,81.479z
	 M173.533,75.128c0-5.192,2.905-8.807,7.516-8.807c5.401,0,8.181,5.884,8.181,10.242c0,5.197-2.906,8.812-7.52,8.812
	C176.313,85.375,173.533,79.499,173.533,75.128 M170.061,75.963c0,5.454,4.958,10.337,11.272,10.337
	c6.914,0,11.369-5.312,11.369-10.565c0-5.452-4.958-10.333-11.274-10.333C174.512,65.401,170.061,70.709,170.061,75.963
	 M150.128,62.907c2.819,0,3.309,0.713,3.309,3.343v16.268c0,2.393-1.431,2.428-3.421,2.462v0.89
	c1.879-0.035,3.648-0.062,5.449-0.062c1.655,0,3.27,0.062,5.11,0.062v-0.89c-2.025-0.034-3.455-0.069-3.455-2.462V63.211
	c0.417-0.066,1.091-0.102,1.654-0.102c2.481,0,6.125,1.333,6.125,6.083c0,2.458-1.427,5.364-4.66,5.364c-0.488,0-0.94,0-1.429-0.071
	v1.136c0.562,0,1.167,0.033,1.919,0.033c3.945,0,8.08-2.803,8.08-6.84c0-5.331-5.562-6.8-9.437-6.8
	c-1.573,0-2.889,0.066-4.168,0.066c-1.693,0-3.382,0-5.075-0.066V62.907z"/>
<path fill="#6F6F6F" d="M336.647,42.988c-1.667-0.562-3.365-0.98-5.149-0.98c-4.182,0-7.451,2.824-7.451,6.646
	c0,2.604,2.067,6.606,7.697,6.606c1.738,0,3.579-0.501,5.206-1.033v-0.313l-0.303-0.268v-2.389c0-1.329,0.761-1.329,1.42-1.329
	v-0.474c-0.598,0.017-1.521,0.039-2.443,0.039c-0.898,0-1.822-0.022-2.763-0.039v0.474c1.063,0,1.821,0,1.821,1.329v2.709
	c-0.301,0.202-1.118,0.712-2.701,0.712c-3.608,0-5.727-3.149-5.727-6.298c0-2.969,2.04-5.789,5.585-5.789
	c2.244,0,4.187,0.836,4.706,2.952h0.44L336.647,42.988z M320.708,44.628c0-1.786,0.656-1.873,1.878-1.873V42.28
	c-0.778,0-1.538,0.036-2.321,0.036c-0.924,0-1.866-0.018-2.789-0.036v0.476c2.006,0.018,2.428,0.523,2.428,2.199v7.248
	c-1.364-1.346-3.245-3.154-4.943-4.86c-2.287-2.296-4.152-3.95-4.971-5.062c-0.541,0-1.104,0.036-1.646,0.036
	c-0.624,0-1.222-0.018-1.842-0.036v0.476c1.729,0,2.468,0.562,2.468,2.128v7.319c0,2.313-0.924,2.313-2.147,2.313v0.475
	c0.881-0.018,1.785-0.036,2.666-0.036c0.884,0,1.786,0.036,2.664,0.036v-0.475c-2.163,0-2.383-0.506-2.383-3.021v-6.791
	l10.478,10.45h0.461V44.628z M292.884,48.182c0-3.299,1.842-5.59,4.77-5.59c3.425,0,5.186,3.73,5.186,6.496
	c0,3.299-1.844,5.59-4.767,5.59C294.645,54.678,292.884,50.944,292.884,48.182 M290.682,48.706c0,3.461,3.142,6.553,7.151,6.553
	c4.384,0,7.214-3.364,7.214-6.694c0-3.461-3.151-6.558-7.154-6.558C293.504,42.007,290.682,45.376,290.682,48.706 M272.924,54.991
	c1.188-0.021,2.309-0.044,3.453-0.044c1.051,0,2.078,0.044,2.955,0.044v-0.563c-0.996-0.022-1.904-0.044-1.904-1.557V41.985
	c0-1.522,0.908-1.544,1.814-1.562v-0.567c-0.838,0.022-1.937,0.044-3.03,0.044c-1.074,0-2.172-0.022-3.288-0.044v0.567
	c1.261,0.018,2.167,0.04,2.167,1.562v10.885c0,1.513-0.906,1.535-2.167,1.557V54.991z M277.522,47.466
	c2.481,2.516,5.056,4.921,7.413,7.525c0.573-0.021,1.149-0.044,1.721-0.044c0.766,0,1.548,0.023,2.314,0.044v-0.563
	c-0.504,0-1.265,0-2.053-0.695c-2.482-2.34-4.816-4.79-7.224-7.195l4.076-3.884c2.148-2.037,2.931-2.23,4.27-2.23v-0.567
	c-0.768,0.022-1.5,0.044-2.289,0.044c-1.002,0-2.05-0.022-3.077-0.044v0.567c0.644,0,1.335,0,1.335,0.498
	c0,0.392-0.623,0.955-0.88,1.191L277.522,47.466z M264.91,42.988c-1.662-0.562-3.365-0.98-5.148-0.98
	c-4.183,0-7.448,2.824-7.448,6.646c0,2.604,2.064,6.606,7.688,6.606c1.742,0,3.589-0.501,5.21-1.033v-0.313l-0.302-0.268v-2.389
	c0-1.329,0.76-1.329,1.424-1.329v-0.474c-0.599,0.017-1.523,0.039-2.447,0.039c-0.899,0-1.818-0.022-2.758-0.039v0.474
	c1.062,0,1.818,0,1.818,1.329v2.709c-0.297,0.202-1.122,0.712-2.703,0.712c-3.603,0-5.729-3.149-5.729-6.298
	c0-2.969,2.045-5.789,5.59-5.789c2.244,0,4.185,0.836,4.706,2.952h0.438L264.91,42.988z M248.967,44.628
	c0-1.786,0.663-1.873,1.882-1.873V42.28c-0.779,0-1.539,0.036-2.322,0.036c-0.919,0-1.861-0.018-2.78-0.036v0.476
	c1.999,0.018,2.418,0.523,2.418,2.199v7.248c-1.361-1.346-3.244-3.154-4.946-4.86c-2.282-2.296-4.147-3.95-4.968-5.062
	c-0.54,0-1.103,0.036-1.642,0.036c-0.623,0-1.221-0.018-1.843-0.036v0.476c1.724,0,2.463,0.562,2.463,2.128v7.319
	c0,2.313-0.924,2.313-2.144,2.313v0.475c0.884-0.018,1.783-0.036,2.668-0.036c0.882,0,1.779,0.036,2.66,0.036v-0.475
	c-2.162,0-2.381-0.506-2.381-3.021v-6.791l10.474,10.45h0.46V44.628z M221.147,48.182c0-3.299,1.841-5.59,4.767-5.59
	c3.425,0,5.191,3.73,5.191,6.496c0,3.299-1.847,5.59-4.77,5.59C222.914,54.678,221.147,50.944,221.147,48.182 M218.944,48.706
	c0,3.461,3.146,6.553,7.154,6.553c4.385,0,7.204-3.364,7.204-6.694c0-3.461-3.143-6.558-7.146-6.558
	C221.768,42.007,218.944,45.376,218.944,48.706 M203.021,46.708v-4.723c0-1.522,0.904-1.544,2.171-1.562v-0.567
	c-1.194,0.022-2.294,0.044-3.387,0.044c-1.078,0-2.172-0.022-3.292-0.044v0.567c1.264,0.018,2.17,0.04,2.17,1.562v10.885
	c0,1.513-0.906,1.535-2.17,1.557v0.563c1.191-0.021,2.309-0.044,3.457-0.044c1.051,0,2.072,0.044,3.222,0.044v-0.563
	c-1.267-0.022-2.171-0.044-2.171-1.557v-5.278h9.628v5.278c0,1.513-0.899,1.535-2.166,1.557v0.563
	c1.238-0.021,2.338-0.044,3.455-0.044c1.075,0,2.148,0.023,3.22,0.044v-0.563c-1.264-0.022-2.166-0.044-2.166-1.557V41.985
	c0-1.522,0.902-1.544,2.166-1.562v-0.567c-1.071,0-2.121,0.044-3.147,0.044c-1.146,0-2.261-0.022-3.527-0.044v0.567
	c1.267,0.018,2.166,0.04,2.166,1.562v4.723H203.021z M184.595,42.86h2.342c2.006,0,2.905,0.515,3.206,2.226l0.403-0.092V42.28
	c-1.947,0.036-3.847,0.036-5.771,0.036c-1.342,0-2.703,0-4.049-0.036v0.476c1.586,0.052,1.905,0.123,1.905,1.614v8.088
	c0,1.769-0.156,2.059-1.905,2.059v0.475c1.487-0.036,2.968-0.036,4.449-0.036c2.005,0,4.009,0.036,6.007,0.036
	c0.205-0.946,0.501-1.878,0.825-2.789l-0.481-0.07c-0.783,1.948-1.663,2.186-3.626,2.278h-1.242c-1.981,0-2.063-0.515-2.063-2.534
	V48.78h2.144c1.54,0,2.179,0,2.179,1.75h0.402c0.022-0.585-0.077-1.443-0.077-2.023c0-0.655,0.039-1.635,0.077-2.041h-0.402
	c-0.057,0.423-0.057,1.565-1.68,1.565h-2.643V42.86z M167.687,48.032v-3.966c0-1.277,0.761-1.293,1.82-1.311V42.28
	c-0.999,0.018-1.922,0.036-2.842,0.036c-0.906,0-1.822-0.018-2.764-0.036v0.476c1.062,0.018,1.823,0.034,1.823,1.311v9.139
	c0,1.271-0.761,1.293-1.823,1.311v0.475c0.999-0.018,1.939-0.036,2.905-0.036c0.881,0,1.742,0.036,2.701,0.036v-0.475
	c-1.059-0.018-1.82-0.04-1.82-1.311V48.78h8.089v4.425c0,1.271-0.761,1.293-1.819,1.311v0.475c1.041-0.018,1.959-0.036,2.901-0.036
	c0.904,0,1.805,0.018,2.707,0.036v-0.475c-1.064-0.018-1.825-0.04-1.825-1.311v-9.139c0-1.277,0.76-1.293,1.825-1.311V42.28
	c-0.902,0-1.783,0.036-2.646,0.036c-0.958,0-1.904-0.018-2.962-0.036v0.476c1.058,0.018,1.819,0.034,1.819,1.311v3.966H167.687z
	 M163,39.254h-0.501c-0.093,0.409-0.694,0.603-1.549,0.603h-10.827c-0.596,0-1.238-0.022-1.504-0.603h-0.473l-0.266,3.444h0.623
	c0.405-1.407,0.499-1.949,2.643-1.949h3.125v12.122c0,1.513-0.906,1.535-2.167,1.557v0.563c1.19-0.021,2.312-0.044,3.455-0.044
	c1.049,0,2.077,0.044,3.22,0.044v-0.563c-1.264-0.022-2.171-0.044-2.171-1.557V40.749h3.626c1.904,0,1.833,0.778,1.904,1.949h0.644
	L163,39.254z"/>
<path fill="#8F1329" d="M20.931,43.727c5.095-1.086,10.431-0.642,15.304,1.349l27.495-27.492c3.825-3.822,10.17-3.694,13.995,0.136
	c3.822,3.822,3.822,10.217,0,14.043l-7.054,7.051L60.096,28.245l-8.383,8.378l29.64,29.63l8.378-8.379L79.164,47.311l6.976-6.979
	l0.042-0.036c8.53-8.528,8.525-22.352,0-30.875c-8.525-8.529-22.376-8.577-30.901-0.054C55.281,9.368,20.904,43.745,20.931,43.727
	 M96.217,19.467c1.088,5.088,0.638,10.428-1.352,15.301l27.496,27.493c3.824,3.826,3.689,10.168-0.135,13.993
	c-3.824,3.826-10.219,3.826-14.048,0l-7.047-7.053l10.57-10.574l-8.378-8.383L73.685,79.887l8.381,8.373L92.63,77.696l6.978,6.976
	l0.04,0.044c8.525,8.523,22.347,8.523,30.877,0c8.526-8.532,8.577-22.376,0.051-30.903C130.576,53.812,96.204,19.436,96.217,19.467
	 M120.528,94.7c-5.095,1.09-10.426,0.633-15.303-1.356l-27.496,27.499c-3.825,3.827-10.167,3.686-13.988-0.132
	c-3.829-3.827-3.829-10.221,0-14.048l7.047-7.055l10.574,10.573l8.384-8.374L60.11,72.165l-8.381,8.381l10.565,10.565l-6.977,6.976
	l-0.042,0.044c-8.525,8.524-8.525,22.343,0,30.875c8.53,8.522,22.381,8.576,30.906,0.054C86.182,129.06,120.558,94.683,120.528,94.7
	 M45.266,118.979c-1.091-5.094-0.64-10.425,1.346-15.308L19.121,76.175c-3.824-3.82-3.688-10.162,0.134-13.983
	c3.824-3.832,10.219-3.827,14.043,0l7.053,7.049L29.777,79.816l8.381,8.383l29.636-29.642l-8.379-8.378L48.846,60.748l-6.978-6.976
	l-0.035-0.044c-8.526-8.528-22.352-8.523-30.878,0.005c-8.526,8.523-8.575,22.372-0.05,30.896
	C10.905,84.629,45.279,119.013,45.266,118.979"/>
</svg>
