<?xml version="1.0" encoding="utf-8"?>
<!-- Generator: Adobe Illustrator 22.0.1, SVG Export Plug-In . SVG Version: 6.00 Build 0)  -->
<svg version="1.1" id="Layer_1" xmlns="http://www.w3.org/2000/svg" xmlns:xlink="http://www.w3.org/1999/xlink" x="0px" y="0px"
	 viewBox="0 0 600 140" style="enable-background:new 0 0 600 140;" xml:space="preserve">
<style type="text/css">
	.st0{fill:#A02733;}
	.st1{fill:#231F20;}
</style>
<g>
	<g>
		<g>
			<path class="st0" d="M52.9,117.2c-1-4.7-0.6-9.7,1.2-14.2L28.6,77.3c-3.6-3.6-3.5-9.5,0.1-13c3.6-3.6,9.5-3.6,13.1,0l6.6,6.6
				l-9.8,9.9l7.8,7.8l27.6-27.6l-7.8-7.8L56.3,63l-6.5-6.5l0,0c-7.9-7.9-20.8-7.9-28.7,0c-7.9,7.9-8,20.8,0,28.8
				C20.9,85.2,52.9,117.2,52.9,117.2z M123,94.6c-4.7,1-9.7,0.6-14.2-1.3l-25.6,25.6c-3.6,3.6-9.5,3.4-13-0.1
				c-3.6-3.6-3.6-9.5,0-13.1l6.6-6.6l9.8,9.8l7.8-7.8L66.7,73.6l-7.8,7.8l9.8,9.8l-6.5,6.5l0,0c-7.9,7.9-7.9,20.8,0,28.7
				c7.9,7.9,20.8,8,28.8,0.1C91,126.6,123,94.6,123,94.6z M100.4,24.5c1,4.7,0.6,9.7-1.3,14.3l25.6,25.6c3.6,3.6,3.4,9.5-0.1,13
				c-3.6,3.6-9.5,3.6-13.1,0l-6.6-6.6l9.8-9.8l-7.8-7.8L79.4,80.8l7.8,7.8l9.8-9.8l6.5,6.5l0,0c7.9,7.9,20.8,7.9,28.7,0
				c7.9-7.9,8-20.8,0.1-28.8C132.4,56.5,100.4,24.5,100.4,24.5z M30.3,47.1c4.7-1,9.7-0.6,14.3,1.2l25.6-25.6
				c3.6-3.6,9.5-3.4,13,0.1c3.6,3.6,3.6,9.5,0,13.1l-6.6,6.6l-9.9-9.8l-7.8,7.8l27.6,27.6l7.8-7.8l-9.8-9.8l6.5-6.5l0,0
				C99,36,99,23.1,91,15.2c-7.9-7.9-20.8-8-28.8,0C62.2,15.1,30.2,47.1,30.3,47.1z"/>
		</g>
	</g>
	<g>
		<path class="st1" d="M163.9,46.4h16.2c8.6,0,17.7,1,17.7,13.8c0,6.2-2.1,14.6-18.2,14.6h-5.9v18.5h-9.8V46.4z M173.7,67.1h5.6
			c6.2,0,8.3-1.8,8.3-6.9c0-5.4-3.1-6.4-8.3-6.4h-5.6V67.1z"/>
		<path class="st1" d="M218.8,93.9c-9.3,0-16.2-5-16.2-17.7v-0.5c0-9.2,3.7-17.8,16.2-17.8h1c9.4,0,16.3,4.8,16.3,17.6v0.5
			c0,9.2-3.7,17.8-16.2,17.8H218.8z M219.5,86.9c4.5,0,7.1-2.9,7.1-11.2c0-7.7-2.6-10.8-7-10.8h-0.4c-4.5,0-7,3.1-7,11.2
			c0,7.7,2.6,10.8,7,10.8H219.5z"/>
		<path class="st1" d="M251.2,81.1c0,3.4,0.5,5,3.9,5c1.8,0,3.5-0.5,4.8-1l0.6,7.7c-1.5,0.5-5.1,1.2-7.5,1.2
			c-8.8,0-10.5-3.7-10.5-11.9V43.7h8.7V81.1z"/>
		<path class="st1" d="M276.3,93.9l-13.7-35.3h10.2l8.1,23.7h0.1l7.7-23.7h9.8l-14.1,37.1c-3.4,8.9-6.4,12.4-13.7,12.4
			c-2.7,0-5.4-0.6-7.2-1.4l1-7.4c2.4,0.9,3.9,1.5,5.8,1.5c2.6,0,4.1-2.4,5.3-5.6L276.3,93.9z"/>
		<path class="st1" d="M304.7,75.6V46.4h9.8v29.7c0,7.5,3.5,10.1,8.9,10.1c5.6,0,9.2-2.6,9.2-10.1V46.4h9.8v29.3
			c0,12.3-6.2,18.3-19.1,18.3C310.9,93.9,304.7,88.2,304.7,75.6z"/>
		<path class="st1" d="M370.1,46.4h16.2c16.8,0,22.9,7.6,22.9,23.4c0,21.1-10.7,23.4-23.1,23.4h-15.9V46.4z M379.8,53.6V86h5.5
			c9.2,0,13.8-2.4,13.8-16.6c0-14.7-6.7-15.8-13.8-15.8H379.8z"/>
		<path class="st1" d="M416.9,75.8c0-12.1,6.7-17.8,17.1-17.8c13.6,0,15.2,8.8,15.2,16.4c0,1.7-0.1,3.3-0.3,4.8h-22.3
			c0.6,5,3.9,7.4,9.9,7.4c3.6,0,6.2-0.4,9.8-1.7l0.6,7.3c-3.1,1.3-7.7,1.7-11.4,1.7c-13.1,0-18.6-6-18.6-17.6V75.8z M440.1,73v-0.5
			c-0.2-3.7-1.4-7.3-6.4-7.3c-5.8,0-7,4.8-7.2,8.1L440.1,73z"/>
		<path class="st1" d="M456.4,84.8c3.5,1.4,8.2,2.1,10.9,2.1c2,0,4.6-0.4,4.6-3c0-2.3-2.6-3.3-5.7-4.3c-4.8-1.6-10.6-3.7-10.6-10.9
			c0-6.4,4.2-10.7,13.4-10.7c3.1,0,7.8,0.5,10.4,1.7L479,67c-3.5-1.6-7.3-2.1-9.8-2.1c-3.1,0-4.3,1.2-4.3,3.3c0,2.3,2.5,3.1,5.5,4.1
			c4.8,1.6,10.7,3.5,10.7,11.2c0,6.2-4.2,10.4-14,10.4c-3.7,0-7.9-0.3-11.2-1.7L456.4,84.8z"/>
		<path class="st1" d="M493.5,93.2V65.7h-6.6v-7.1h15.3v34.6H493.5z M490.5,49.5c0-3.9,2.6-5.8,5.9-5.8c3.5,0,6,1.8,6,5.8
			c0,3.9-2.5,5.8-6,5.8C493.1,55.3,490.5,53.4,490.5,49.5z"/>
		<path class="st1" d="M511.3,98.6c0-2.8,1.3-5.9,3.5-7.8c-1.5-0.9-2.8-2-2.8-5c0-2.5,1-4.7,2.9-6.5c-2.3-2.2-3.3-5.4-3.3-8.8
			c0-7,3.7-12.6,15.1-12.6c4.2,0,7.3,0.7,9.7,2.1c1.6-1.5,3.5-2.4,5.8-2.4c0.8,0,2,0,3.3,0.1l-0.5,7c-1.2-0.1-2.1-0.1-2.2-0.1
			c-0.7,0-1.4,0.1-1.9,0.4c0.7,1.6,1,3.5,1,5.5c0,7.5-4.5,12.5-15.3,12.5c-2.6,0-4.8-0.3-6.6-0.7v0.4c0,3.5,3.1,3.6,9.2,3.7
			c8.8,0.2,14.4,1.2,14.4,8.6c0,5.7-4.2,12.4-18,12.4C513.9,107.5,511.3,103.4,511.3,98.6z M528.1,93.2c-5-0.1-6-0.3-7.2-0.5
			c-0.6,1-1.5,2.4-1.5,4.2c0,2.9,3.3,3.9,7.3,3.9c6.4,0,7.7-2.6,7.7-4.5C534.3,93.9,533,93.3,528.1,93.2z M532.5,70.3
			c0-4.4-2.1-6.2-6-6.2c-3.7,0-5.8,1.8-5.8,6.4v0.1c0,4.3,2.2,6.2,5.9,6.2C530.4,76.7,532.5,74.9,532.5,70.3z"/>
		<path class="st1" d="M563.1,62.4h0.1c2.4-3,5.4-4.5,9.7-4.5c8.6,0,12,4.6,12,12.5v22.8h-8.7V72.4c0-5.8-2.2-7.5-5.2-7.5
			c-6,0-8,5.5-8,15.1v13.2h-8.7V58.6h8.7V62.4z"/>
	</g>
</g>
</svg>
